<svg width="40" height="40" xmlns="http://www.w3.org/2000/svg"><path d="M23.333 15.004l14.684 2.933A2.473 2.473 0 0140 20.385v17.1A2.504 2.504 0 0137.5 40h-15a.828.828 0 00.833-.838v-.838H37.5c.45 0 .833-.37.833-.839v-17.1a.841.841 0 00-.65-.821l-14.35-2.85v-1.71z"/><path d="M32.5 23.235c.467 0 .833.369.833.838 0 .47-.366.839-.833.839h-3.333a.828.828 0 01-.834-.839c0-.47.367-.838.834-.838H32.5zm0 5.03c.467 0 .833.368.833.838s-.366.838-.833.838h-3.333a.828.828 0 01-.834-.838c0-.47.367-.838.834-.838H32.5zm0 5.029c.467 0 .833.369.833.838 0 .47-.366.839-.833.839h-3.333a.828.828 0 01-.834-.839c0-.47.367-.838.834-.838H32.5zm-9.167 5.868c0 .47-.366.838-.833.838a.828.828 0 01-.833-.838V15.69c0-.252.116-.486.3-.654.2-.15.45-.218.7-.168l.666.135v24.158z"/><path d="M21.667 38.324v.838c0 .47.366.838.833.838h-6.667a.828.828 0 00.834-.838v-.838h5zM17.5 8.147c.467 0 .833.369.833.838 0 .47-.366.838-.833.838h-3.333a.828.828 0 01-.834-.838c0-.47.367-.838.834-.838H17.5zm.833 5.867c0 .47-.366.839-.833.839h-3.333a.828.828 0 01-.834-.839c0-.469.367-.838.834-.838H17.5c.467 0 .833.369.833.838zm-.833 4.192c.467 0 .833.368.833.838s-.366.838-.833.838h-3.333a.828.828 0 01-.834-.838c0-.47.367-.838.834-.838H17.5zm0 5.029c.467 0 .833.369.833.838 0 .47-.366.839-.833.839h-3.333a.828.828 0 01-.834-.839c0-.47.367-.838.834-.838H17.5zm-7.5.838c0 .47-.367.839-.833.839H5.833A.828.828 0 015 24.073c0-.47.367-.838.833-.838h3.334c.466 0 .833.369.833.838zM9.167 8.147c.466 0 .833.369.833.838 0 .47-.367.838-.833.838H5.833A.828.828 0 015 8.985c0-.47.367-.838.833-.838h3.334zm0 5.029c.466 0 .833.369.833.838 0 .47-.367.839-.833.839H5.833A.828.828 0 015 14.014c0-.469.367-.838.833-.838h3.334zm0 5.03c.466 0 .833.368.833.838s-.367.838-.833.838H5.833A.828.828 0 015 19.044c0-.47.367-.838.833-.838h3.334z"/><path d="M15 30.78a.838.838 0 00-.833-.839h-5a.828.828 0 00-.834.838v7.545H6.667v-7.545a2.504 2.504 0 012.5-2.514h5c1.383 0 2.5 1.123 2.5 2.514v7.545H15v-7.545z"/><path d="M8.333 38.324h8.334v.838c0 .47-.367.838-.834.838H7.5a.828.828 0 01-.833-.838v-.838h1.666z"/><path d="M2.917.1l18.316 2.8a2.501 2.501 0 012.1 2.48v9.624l-.666-.135a.872.872 0 00-.7.168.893.893 0 00-.3.654V5.38c0-.42-.3-.772-.7-.839L2.65 1.76c-.05-.016-.1-.016-.15-.016-.2 0-.383.067-.533.2-.2.168-.3.386-.3.638v34.904c0 .47.383.839.833.839h4.167v.838c0 .47.366.838.833.838h-5A2.504 2.504 0 010 37.485V2.581C0 1.843.317 1.139.883.67A2.491 2.491 0 012.917.1z"/></svg>