<svg width="40" height="40" xmlns="http://www.w3.org/2000/svg"><path d="M35.833 40H4.167A4.172 4.172 0 010 35.833V7.5a4.172 4.172 0 014.167-4.167h31.666A4.172 4.172 0 0140 7.5v28.333A4.172 4.172 0 0135.833 40zM4.167 5a2.503 2.503 0 00-2.5 2.5v28.333c0 1.379 1.121 2.5 2.5 2.5h31.666c1.379 0 2.5-1.121 2.5-2.5V7.5c0-1.378-1.121-2.5-2.5-2.5H4.167z"/><path d="M39.167 15H.833a.834.834 0 010-1.667h38.334a.834.834 0 010 1.667zM18.333 32.5c-.02 0-.038 0-.06-.002a.829.829 0 01-.606-.331l-5-6.667a.833.833 0 111.333-1l4.423 5.898 9.32-9.32a.834.834 0 011.179 1.179l-10 10a.831.831 0 01-.589.243zM9.167 8.333a.834.834 0 01-.834-.833V.833a.834.834 0 011.667 0V7.5c0 .46-.373.833-.833.833zm21.666 0A.834.834 0 0130 7.5V.833a.834.834 0 011.667 0V7.5c0 .46-.374.833-.834.833z"/></svg>