<svg width="40" height="40" xmlns="http://www.w3.org/2000/svg"><path d="M12.8 0H4.267a4.165 4.165 0 00-4.16 4.16v8.533a4.165 4.165 0 004.16 4.16H12.8a4.165 4.165 0 004.16-4.16V4.16A4.165 4.165 0 0012.8 0zm2.666 12.693A2.67 2.67 0 0112.8 15.36H4.267A2.67 2.67 0 011.6 12.693V4.16a2.67 2.67 0 012.667-2.667H12.8a2.67 2.67 0 012.666 2.667v8.533zM35.84 0h-8.533a4.165 4.165 0 00-4.16 4.16v8.533a4.165 4.165 0 004.16 4.16h8.533a4.165 4.165 0 004.16-4.16V4.16A4.165 4.165 0 0035.84 0zm2.666 12.693a2.67 2.67 0 01-2.666 2.667h-8.533a2.67 2.67 0 01-2.667-2.667V4.16a2.67 2.67 0 012.667-2.667h8.533a2.67 2.67 0 012.667 2.667v8.533zM12.8 23.04H4.267a4.165 4.165 0 00-4.16 4.16v8.533a4.165 4.165 0 004.16 4.16H12.8a4.165 4.165 0 004.16-4.16V27.2a4.165 4.165 0 00-4.16-4.16zm2.666 12.693A2.67 2.67 0 0112.8 38.4H4.267A2.67 2.67 0 011.6 35.733V27.2a2.67 2.67 0 012.667-2.667H12.8a2.67 2.67 0 012.666 2.667v8.533zM31.573 23.04A8.427 8.427 0 1040 31.467a8.436 8.436 0 00-8.427-8.427zm0 15.36a6.933 6.933 0 116.933-6.933 6.941 6.941 0 01-6.933 6.933z"/></svg>