<svg width="21" height="18" xmlns="http://www.w3.org/2000/svg"><g fill="#fff"><path d="M20.292 2.672a2.233 2.233 0 00-1.656-.714h-3.312v-.04c0-.51-.2-1-.54-1.326A1.806 1.806 0 0013.489.04H7.502a1.82 1.82 0 00-1.317.55 1.89 1.89 0 00-.538 1.327v.04H2.354c-.658 0-1.237.266-1.656.714A2.452 2.452 0 000 4.365v10.16c0 .672.26 1.264.698 1.692a2.347 2.347 0 001.656.714h16.282c.658 0 1.237-.265 1.656-.714a2.45 2.45 0 00.698-1.693V4.365c0-.673-.26-1.264-.698-1.693zm-.34 11.852h-.02c0 .367-.14.694-.379.939a1.267 1.267 0 01-.917.387H2.354c-.359 0-.678-.143-.917-.387a1.325 1.325 0 01-.38-.939V4.365c0-.367.14-.693.38-.938.239-.245.558-.388.917-.388h3.851c.3 0 .539-.244.539-.55v-.592a.81.81 0 01.22-.571.775.775 0 01.558-.224h5.966c.22 0 .419.081.559.224a.81.81 0 01.219.571v.592c0 .306.24.55.539.55h3.85c.36 0 .679.143.918.388.24.245.38.571.38.938v10.16z"/><path d="M10.495 4.427a4.864 4.864 0 00-3.472 1.468 5.035 5.035 0 00-1.436 3.55c0 1.387.558 2.652 1.436 3.55a4.816 4.816 0 003.472 1.468 4.864 4.864 0 003.472-1.469 5.035 5.035 0 001.436-3.55 5.084 5.084 0 00-1.436-3.549 4.864 4.864 0 00-3.472-1.468zm2.714 7.812a3.856 3.856 0 01-2.714 1.143 3.856 3.856 0 01-2.714-1.143 3.944 3.944 0 01-1.117-2.774c0-1.081.44-2.06 1.117-2.774a3.773 3.773 0 012.714-1.142c1.057 0 2.015.448 2.714 1.142a3.944 3.944 0 011.117 2.774 3.86 3.86 0 01-1.117 2.774z"/><circle cx="17.598" cy="5.406" r="1"/></g></svg>