<svg width="28" height="27" xmlns="http://www.w3.org/2000/svg"><g fill="#018E37"><path d="M6.533 26.133A.935.935 0 015.6 25.2v-4.667H2.8a2.803 2.803 0 01-2.8-2.8V2.8C0 1.256 1.256 0 2.8 0h22.4C26.744 0 28 1.256 28 2.8v14.933c0 1.544-1.256 2.8-2.8 2.8H13.86L7.118 25.93a.932.932 0 01-.584.204zM2.8 1.867a.934.934 0 00-.933.933v14.933c0 .515.418.934.933.934h3.733c.516 0 .934.417.934.933v3.659l5.483-4.388a.933.933 0 01.583-.204H25.2c.515 0 .933-.42.933-.934V2.8a.934.934 0 00-.933-.933H2.8z"/><path d="M21.467 9.333H6.533a.933.933 0 110-1.866h14.934a.933.933 0 110 1.866zM14 13.067H6.533a.933.933 0 110-1.867H14a.933.933 0 110 1.867z"/></g></svg>