<svg width="28" height="28" xmlns="http://www.w3.org/2000/svg"><g fill="#018E37"><path d="M23.898 7.055h-.765V4.102A4.106 4.106 0 0019.03 0H8.97a4.106 4.106 0 00-4.102 4.102v2.953h-.765A4.106 4.106 0 000 11.156v6.563a4.106 4.106 0 004.102 4.101h.765v3.72A2.464 2.464 0 007.328 28h13.344a2.464 2.464 0 002.46-2.46v-3.72h.766A4.106 4.106 0 0028 17.72v-6.563a4.106 4.106 0 00-4.102-4.101zM6.508 4.102a2.464 2.464 0 012.46-2.461h10.063a2.464 2.464 0 012.461 2.46v2.954H6.508V4.102zm14.984 21.437c0 .452-.368.82-.82.82H7.328a.821.821 0 01-.82-.82v-8.094h14.984v8.094zm4.867-7.82a2.464 2.464 0 01-2.46 2.46h-.766v-2.734h.492a.82.82 0 000-1.64H4.375a.82.82 0 000 1.64h.492v2.735h-.765a2.464 2.464 0 01-2.461-2.461v-6.563a2.464 2.464 0 012.46-2.46h19.797a2.464 2.464 0 012.461 2.46v6.563z"/><path d="M16.188 19.305h-4.375a.82.82 0 000 1.64h4.374a.82.82 0 000-1.64zm0 3.5h-4.375a.82.82 0 000 1.64h4.374a.82.82 0 000-1.64zM7 10.555H4.375a.82.82 0 000 1.64H7a.82.82 0 000-1.64z"/></g></svg>