<svg width="27" height="28" xmlns="http://www.w3.org/2000/svg"><path d="M21.328 18.156a4.92 4.92 0 00-3.958 2l-7.726-3.948a4.908 4.908 0 00-.16-3.234l8.097-4.864a4.913 4.913 0 003.747 1.734 4.927 4.927 0 004.922-4.922A4.927 4.927 0 0021.328 0a4.927 4.927 0 00-4.589 6.701l-8.117 4.877a4.912 4.912 0 00-3.7-1.68A4.927 4.927 0 000 14.82a4.919 4.919 0 008.924 2.862l7.703 3.937A4.927 4.927 0 0021.328 28a4.927 4.927 0 004.922-4.922 4.927 4.927 0 00-4.922-4.922zm0-16.515a3.285 3.285 0 013.281 3.28 3.285 3.285 0 01-3.28 3.282 3.285 3.285 0 01-3.282-3.281 3.285 3.285 0 013.281-3.281zM4.922 18.1a3.285 3.285 0 01-3.281-3.28 3.285 3.285 0 013.28-3.282 3.285 3.285 0 013.282 3.281 3.285 3.285 0 01-3.281 3.282zm16.406 8.258a3.285 3.285 0 01-3.281-3.28 3.285 3.285 0 013.281-3.282 3.285 3.285 0 013.281 3.281 3.285 3.285 0 01-3.28 3.281z" fill="#018E37"/></svg>