<svg width="30" height="19" xmlns="http://www.w3.org/2000/svg"><path d="M29.689 1.691a.634.634 0 00-.63-.011l-6.883 3.77V3.188A3.187 3.187 0 0018.998 0H3.178A3.187 3.187 0 000 3.188v12.587a3.187 3.187 0 003.178 3.188h15.82a3.187 3.187 0 003.178-3.188v-2.22l6.884 3.77a.634.634 0 00.94-.56V2.24a.638.638 0 00-.311-.549zm-8.784 14.084a1.912 1.912 0 01-1.907 1.913H3.178a1.912 1.912 0 01-1.907-1.913V3.188a1.912 1.912 0 011.907-1.913h15.82a1.912 1.912 0 011.907 1.913v12.587zm7.824-.085l-6.553-3.589V6.903l6.553-3.589V15.69z" fill="#FFF"/></svg>