<?xml version="1.0" encoding="UTF-8"?>
<svg width="33px" height="45px" viewBox="0 0 33 45" version="1.1" xmlns="http://www.w3.org/2000/svg" xmlns:xlink="http://www.w3.org/1999/xlink">
    <title>pin copy 9</title>
    <g id="Welcome" stroke="none" stroke-width="1" fill="none" fill-rule="evenodd">
        <g id="lpw-featured-development-landing-page-2.0" transform="translate(-1618.000000, -588.000000)" fill="#029532" fill-rule="nonzero">
            <g id="Bitmap" transform="translate(1026.000000, 269.000000)">
                <g id="pin-copy-9" transform="translate(592.032132, 319.000000)">
                    <path d="M16.4678684,0 C7.38765789,0 0,6.72916992 0,15.0000293 C0,17.4829395 0.681517544,19.9447559 1.97710526,22.1283105 L15.5673158,44.5166016 C15.7482368,44.8150781 16.093,45 16.4678684,45 C16.8427368,45 17.1875,44.8150781 17.3684211,44.5166016 L30.9636491,22.1209277 C32.2542193,19.9447559 32.9357368,17.4828516 32.9357368,14.9999414 C32.9357368,6.72916992 25.5480789,0 16.4678684,0 Z M16.4678684,22.5 C11.9277632,22.5 8.23398246,19.135459 8.23398246,15.0000293 C8.23398246,10.8645996 11.9277632,7.50005859 16.4678684,7.50005859 C21.0079737,7.50005859 24.7017544,10.8645996 24.7017544,15.0000293 C24.7017544,19.135459 21.0079737,22.5 16.4678684,22.5 Z" id="Shape"></path>
                </g>
            </g>
        </g>
    </g>
</svg>