<?xml version="1.0" encoding="UTF-8"?>
<svg width="40px" height="40px" viewBox="0 0 40 40" version="1.1" xmlns="http://www.w3.org/2000/svg" xmlns:xlink="http://www.w3.org/1999/xlink">
    <title>check</title>
    <g id="Welcome" stroke="none" stroke-width="1" fill="none" fill-rule="evenodd">
        <g id="lpw-featured-development-detailed-page-1.0" transform="translate(-365.000000, -1115.000000)" fill="#000000" fill-rule="nonzero">
            <g id="check" transform="translate(365.000000, 1115.000000)">
                <path d="M35.8333333,40 L4.16666667,40 C1.87,40 0,38.13 0,35.8333333 L0,7.5 C0,5.20333333 1.87,3.33333333 4.16666667,3.33333333 L35.8333333,3.33333333 C38.13,3.33333333 40,5.20333333 40,7.5 L40,35.8333333 C40,38.13 38.13,40 35.8333333,40 Z M4.16666667,5 C2.78833333,5 1.66666667,6.12166667 1.66666667,7.5 L1.66666667,35.8333333 C1.66666667,37.2116667 2.78833333,38.3333333 4.16666667,38.3333333 L35.8333333,38.3333333 C37.2116667,38.3333333 38.3333333,37.2116667 38.3333333,35.8333333 L38.3333333,7.5 C38.3333333,6.12166667 37.2116667,5 35.8333333,5 L4.16666667,5 Z" id="Shape"></path>
                <path d="M39.1666667,15 L0.833333333,15 C0.373333333,15 0,14.6266667 0,14.1666667 C0,13.7066667 0.373333333,13.3333333 0.833333333,13.3333333 L39.1666667,13.3333333 C39.6266667,13.3333333 40,13.7066667 40,14.1666667 C40,14.6266667 39.6266667,15 39.1666667,15 Z" id="Path"></path>
                <path d="M18.3333333,32.5 C18.3133333,32.5 18.295,32.5 18.2733333,32.4983333 C18.0316667,32.4816667 17.8116667,32.36 17.6666667,32.1666667 L12.6666667,25.5 C12.39,25.1316667 12.465,24.61 12.8333333,24.3333333 C13.2016667,24.0566667 13.7233333,24.13 14,24.5 L18.4233333,30.3983333 L27.7433333,21.0783333 C28.0683333,20.7533333 28.5966667,20.7533333 28.9216667,21.0783333 C29.2466667,21.4033333 29.2466667,21.9316667 28.9216667,22.2566667 L18.9216667,32.2566667 C18.765,32.4133333 18.5533333,32.5 18.3333333,32.5 Z" id="Path"></path>
                <path d="M9.16666667,8.33333333 C8.70666667,8.33333333 8.33333333,7.96 8.33333333,7.5 L8.33333333,0.833333333 C8.33333333,0.373333333 8.70666667,0 9.16666667,0 C9.62666667,0 10,0.373333333 10,0.833333333 L10,7.5 C10,7.96 9.62666667,8.33333333 9.16666667,8.33333333 Z" id="Path"></path>
                <path d="M30.8333333,8.33333333 C30.3733333,8.33333333 30,7.96 30,7.5 L30,0.833333333 C30,0.373333333 30.3733333,0 30.8333333,0 C31.2933333,0 31.6666667,0.373333333 31.6666667,0.833333333 L31.6666667,7.5 C31.6666667,7.96 31.2933333,8.33333333 30.8333333,8.33333333 Z" id="Path"></path>
            </g>
        </g>
    </g>
</svg>