<svg width="39" height="40" xmlns="http://www.w3.org/2000/svg"><path d="M30.094 38.222H8.85c-4.878 0-8.85-3.989-8.85-8.889v-8h38.945v8c0 4.9-3.972 8.89-8.851 8.89zM1.77 23.111v6.222c0 3.923 3.176 7.111 7.081 7.111h21.243c3.905 0 7.08-3.188 7.08-7.11V23.11H1.77z"/><path d="M10.621 37.333h1.77V40h-1.77zm15.932 0h1.77V40h-1.77zM7.08 22.222H5.31v-16C5.31 2.79 8.089 0 11.507 0c3.42 0 6.196 2.789 6.196 6.222v.889h-1.77v-.889c0-2.455-1.98-4.444-4.426-4.444-2.445 0-4.425 1.989-4.425 4.444v16z"/><path d="M23.013 14.222H10.62v-1.778c0-3.433 2.777-6.222 6.196-6.222 3.419 0 6.196 2.79 6.196 6.222v1.778zM12.39 12.444h8.852C21.243 9.99 19.263 8 16.817 8c-2.445 0-4.426 1.989-4.426 4.444z"/></svg>