<svg width="29" height="20" xmlns="http://www.w3.org/2000/svg"><path d="M26.531 8.302V2.967c0-1.615-1.353-2.93-3.014-2.93H5.427c-1.662 0-3.015 1.315-3.015 2.93v5.335C1.038 8.573 0 9.757 0 11.172v8.205c0 .324.27.586.603.586a.595.595 0 00.603-.586V17.62h26.532v1.758c0 .324.27.586.603.586a.595.595 0 00.603-.586v-8.205c0-1.415-1.039-2.599-2.413-2.87zM3.618 2.967c0-.97.812-1.758 1.809-1.758h18.09c.997 0 1.809.789 1.809 1.758v5.275h-1.66c.118-.323.148-.67.06-1.013l-.603-2.344c-.201-.785-.923-1.332-1.754-1.332h-3.882c-.998 0-1.81.789-1.81 1.758v2.345c0 .206.044.402.112.586h-2.634c.067-.184.11-.38.11-.586V5.31c0-.97-.81-1.758-1.808-1.758H7.575c-.831 0-1.554.549-1.755 1.332l-.603 2.344c-.088.342-.058.69.06 1.013h-1.66V2.967zm18.829 5.05a.605.605 0 01-.475.225h-4.485a.595.595 0 01-.603-.586V5.31c0-.323.27-.586.603-.586h3.882a.6.6 0 01.585.444l.603 2.345a.567.567 0 01-.11.503zM12.059 5.31v2.345c0 .323-.27.586-.603.586H6.97a.605.605 0 01-.476-.225.57.57 0 01-.11-.503l.604-2.345a.604.604 0 01.585-.444h3.882c.332 0 .603.263.603.586zm15.679 11.137H1.206v-1.172h26.532v1.172zm0-2.344H1.206v-2.93c0-.97.812-1.759 1.809-1.759h22.914c.997 0 1.809.789 1.809 1.758v2.93z"/></svg>