<svg width="15" height="13" xmlns="http://www.w3.org/2000/svg"><g fill="#FFF"><path d="M14.494 1.93a1.587 1.587 0 00-1.183-.516h-2.366v-.03c0-.367-.142-.721-.384-.957A1.283 1.283 0 009.634.03H5.36c-.37 0-.699.148-.94.398a1.37 1.37 0 00-.386.958v.03H1.682c-.47 0-.884.19-1.183.515-.3.31-.499.751-.499 1.223v7.337c0 .486.185.913.499 1.222.3.31.727.516 1.183.516h11.63c.47 0 .883-.191 1.182-.516.3-.309.499-.75.499-1.222V3.153c0-.486-.185-.914-.499-1.223zm-.242 8.56h-.014c0 .265-.1.5-.271.677a.9.9 0 01-.656.28H1.681a.9.9 0 01-.655-.28.962.962 0 01-.27-.677V3.153c0-.265.1-.501.27-.678a.9.9 0 01.656-.28h2.75a.39.39 0 00.385-.398V1.37a.59.59 0 01.157-.412.55.55 0 01.399-.162h4.261c.157 0 .3.058.4.162a.59.59 0 01.156.412v.427a.39.39 0 00.385.398h2.75a.9.9 0 01.656.28c.171.177.27.413.27.678v7.337z"/><path d="M7.496 3.197c-.969 0-1.852.413-2.48 1.06A3.657 3.657 0 003.99 6.822c0 1.002.4 1.915 1.027 2.564a3.422 3.422 0 002.48 1.06c.969 0 1.852-.412 2.48-1.06a3.657 3.657 0 001.025-2.564 3.693 3.693 0 00-1.026-2.563 3.456 3.456 0 00-2.48-1.061zM9.435 8.84a2.74 2.74 0 01-1.939.825 2.74 2.74 0 01-1.938-.825 2.865 2.865 0 01-.798-2.004c0-.78.314-1.488.798-2.004a2.68 2.68 0 011.938-.825c.756 0 1.44.324 1.939.825a2.87 2.87 0 01.798 2.004c.014.78-.3 1.488-.798 2.004z"/><circle cx="12.57" cy="3.904" r="1"/></g></svg>