<svg width="1080" height="1080" xmlns="http://www.w3.org/2000/svg"><path d="M1080 526.092c0 290.556-237.348 526.092-530.184 526.092a531.072 531.072 0 01-256.284-65.46L0 1080l95.7-282.264a520.56 520.56 0 01-76.08-271.644C19.62 235.536 256.992 0 549.816 0 842.676 0 1080 235.536 1080 526.092zM549.816 83.784c-245.808 0-445.752 198.42-445.752 442.308 0 96.78 31.548 186.408 84.912 259.32L133.284 949.68l171.3-54.444A445.468 445.468 0 00549.828 968.4c245.772 0 445.752-198.396 445.752-442.284S795.612 83.784 549.816 83.784zm267.732 563.472c-3.276-5.364-11.928-8.604-24.912-15.048-13.008-6.444-76.92-37.656-88.8-41.94-11.916-4.296-20.604-6.456-29.256 6.444-8.652 12.912-33.564 41.94-41.16 50.544-7.584 8.628-15.156 9.708-28.164 3.252-12.984-6.444-54.852-20.076-104.496-63.996-38.628-34.176-64.716-76.368-72.3-89.292-7.572-12.9-.792-19.872 5.7-26.292 5.856-5.784 13.008-15.06 19.5-22.584 6.516-7.536 8.676-12.9 12.984-21.516 4.356-8.604 2.184-16.128-1.08-22.596-3.24-6.444-29.256-69.9-40.08-95.724-10.824-25.8-21.636-21.504-29.232-21.504-7.572 0-16.248-1.08-24.912-1.08-8.664 0-22.752 3.228-34.668 16.128-11.904 12.912-45.468 44.112-45.468 107.556 0 63.456 46.548 124.764 53.064 133.356 6.492 8.592 89.88 143.04 222 194.676C698.4 789.252 698.4 772.032 722.232 769.872c23.808-2.148 76.872-31.188 87.744-61.284 10.8-30.144 10.8-55.956 7.572-61.332z" fill="#FFF"/></svg>