<svg width="39" height="40" xmlns="http://www.w3.org/2000/svg"><path d="M21.737 15.094h-4.5v-4.528a.753.753 0 00-.75-.755.753.753 0 00-.75.755v4.528h-4.5a.753.753 0 00-.75.755c0 .417.336.755.75.755h4.5v4.528c0 .417.336.755.75.755s.75-.338.75-.755v-4.528h4.5c.414 0 .75-.338.75-.755a.753.753 0 00-.75-.755z"/><path d="M38.778 38.697L27.634 27.034a15.85 15.85 0 004.603-11.185C32.237 7.11 25.172 0 16.487 0 7.802 0 .737 7.11.737 15.85c0 8.739 7.065 15.848 15.75 15.848 3.813 0 7.311-1.371 10.038-3.647l11.172 11.692a.746.746 0 001.06.021.759.759 0 00.021-1.067zM2.238 15.849c0-7.907 6.392-14.34 14.25-14.34 7.857 0 14.25 6.433 14.25 14.34s-6.393 14.34-14.25 14.34c-7.858 0-14.25-6.433-14.25-14.34z"/></svg>