<?xml version="1.0" encoding="UTF-8"?>
<svg width="50px" height="50px" viewBox="0 0 50 50" version="1.1" xmlns="http://www.w3.org/2000/svg" xmlns:xlink="http://www.w3.org/1999/xlink">
    <!-- Generator: Sketch 64 (93537) - https://sketch.com -->
    <title>star</title>
    <desc>Created with Sketch.</desc>
    <g id="Welcome" stroke="none" stroke-width="1" fill="none" fill-rule="evenodd">
        <g id="lpw-addons-1.1" transform="translate(-750.000000, -726.000000)" fill-rule="nonzero">
            <g id="star" transform="translate(750.000000, 726.000000)">
                <path d="M24.406426,1.93181421 L28.6378168,10.8437185 C29.0782472,11.8013119 29.9667685,12.4765752 31.0073267,12.6445117 L40.3941655,14.0624319 C41.6109785,14.3050704 42.5961368,15.1965367 42.9587673,16.3831311 C43.3213977,17.5697256 43.002872,18.8596057 42.1295691,19.7409962 L35.3953082,26.5647375 C34.633727,27.3492966 34.2917807,28.4499166 34.4746925,29.5279156 L36.072434,39.210728 C36.3303275,40.4111456 35.8760678,41.6529983 34.9044777,42.4036807 C33.9328875,43.1543631 32.6165899,43.2805009 31.5201183,42.7279962 L23.0392687,38.0939437 C22.1373326,37.5966988 21.0434162,37.5966988 20.1414801,38.0939437 L11.6606305,42.7279962 C10.5641589,43.2805009 9.24786131,43.1543631 8.2762711,42.4036807 C7.30468096,41.6529983 6.85042128,40.4111456 7.10831485,39.210728 L8.70605633,29.5313571 C8.88896813,28.4533581 8.54702177,27.3527381 7.78544061,26.5681791 L1.05117967,19.7444377 C0.177876774,18.8630472 -0.140648881,17.5731671 0.221981554,16.3865727 C0.584611999,15.1999783 1.56977038,14.3085119 2.78658332,14.0658735 L12.1734221,12.6479532 C13.2139803,12.4800167 14.1025016,11.8047535 14.542932,10.84716 L18.7743228,1.93181421 C19.2668783,0.816558969 20.3711923,0.0970609107 21.5903744,0.0970609107 C22.8095566,0.0970609107 23.9138705,0.816558969 24.406426,1.93181421 Z" id="Shape" fill="#F3D55B"></path>
                <path d="M35.3996101,26.5655979 C34.6374107,27.351864 34.2918887,28.4522382 34.4678094,29.5330779 L36.0732943,39.2115884 C36.3317302,40.414285 35.8770319,41.6585664 34.9040368,42.4112608 C33.9310416,43.1639552 32.6124344,43.2914761 31.5132352,42.7391813 L23.0384083,38.0930833 C22.1344483,37.606179 21.0463005,37.606179 20.1423405,38.0930833 L11.6675136,42.7391813 C10.5683145,43.2914761 9.24970718,43.1639552 8.27671205,42.4112608 C7.30371688,41.6585664 6.84901862,40.414285 7.10745446,39.2115884 L7.46537608,37.0752437 C28.7599919,24.1995295 25.4474961,6.74998992 23.511622,0.771150097 C23.8903668,1.08781828 24.1942028,1.48450928 24.4012637,1.9326746 L28.6309337,10.8523224 C29.0823716,11.8043057 29.9720048,12.4743438 31.0116287,12.6453721 L40.3898635,14.0641527 C41.6077809,14.3052051 42.5943588,15.1966766 42.9572155,16.3840115 C43.3200722,17.5713463 43.0003725,18.8620242 42.1252672,19.7427169 L35.3996101,26.5655979 Z" id="Shape" fill="#F0C419"></path>
                <circle id="Oval" fill="#FF5364" cx="36.2169792" cy="36.2337837" r="13.7662163"></circle>
                <g id="Group" transform="translate(27.532433, 28.490287)" fill="#FFFFFF">
                    <path d="M6.71167574,7.13520199 C6.37569411,6.79932188 5.83106801,6.79932188 5.49508637,7.13520199 L3.5222155,9.10807286 L1.54934463,7.13520199 C1.21174633,6.80913866 0.675116929,6.81380179 0.343235997,7.14568273 C0.0113550635,7.47756366 0.00669192982,8.01419306 0.33275526,8.35179136 L2.30562613,10.3246622 L0.33275526,12.2975331 C0.109091586,12.5135547 0.0193909202,12.8334501 0.0981297197,13.1342672 C0.176868605,13.4350844 0.411793302,13.6700091 0.71261051,13.748748 C1.01342763,13.8274868 1.33332301,13.7377861 1.54934463,13.5141225 L3.5222155,11.5412516 L5.49508637,13.5141225 C5.83268468,13.8401858 6.36931407,13.8355227 6.701195,13.5036417 C7.03307594,13.1717608 7.03773907,12.6351314 6.71167574,12.2975331 L4.73880487,10.3246622 L6.71167574,8.35179136 C7.04755585,8.01580973 7.04755585,7.47118362 6.71167574,7.13520199 L6.71167574,7.13520199 Z" id="Shape"></path>
                    <path d="M16.4280433,12.0454393 L10.8019628,12.0454393 C11.5144256,11.2522739 12.3038268,10.5317544 13.1585669,9.89446797 C15.0953015,8.33028164 17.2884318,6.55616052 17.2884318,4.3019426 C17.2884318,1.92604535 15.3623865,0 12.9864892,0 C10.610592,0 8.68454662,1.92604535 8.68454662,4.3019426 C8.68454662,4.77712201 9.06975572,5.16233112 9.54493513,5.16233112 C10.0201145,5.16233112 10.4053237,4.77712201 10.4053237,4.3019426 C10.4053237,2.87640426 11.5609509,1.72077712 12.9864892,1.72077712 C14.4120275,1.72077712 15.5676547,2.87640426 15.5676548,4.3019426 C15.5676548,5.73534987 13.7126571,7.23414667 12.0753378,8.55656382 C10.3321906,9.96588022 8.68454662,11.2969013 8.68454662,12.9058278 C8.68454662,13.3810072 9.06975572,13.7662163 9.54493513,13.7662163 L16.4280433,13.7662163 C16.9032227,13.7662163 17.2884318,13.3810072 17.2884318,12.9058278 C17.2884318,12.4306484 16.9032227,12.0454393 16.4280433,12.0454393 L16.4280433,12.0454393 Z" id="Shape"></path>
                </g>
            </g>
        </g>
    </g>
</svg>