<?xml version="1.0" encoding="UTF-8"?>
<svg width="36px" height="50px" viewBox="0 0 36 50" version="1.1" xmlns="http://www.w3.org/2000/svg" xmlns:xlink="http://www.w3.org/1999/xlink">
    <!-- Generator: Sketch 64 (93537) - https://sketch.com -->
    <title>startup</title>
    <desc>Created with Sketch.</desc>
    <defs>
        <linearGradient x1="0.0052503937%" y1="49.9923174%" x2="100.00525%" y2="49.9923174%" id="linearGradient-1">
            <stop stop-color="#A2CDF5" offset="0%"></stop>
            <stop stop-color="#589DEE" offset="100%"></stop>
        </linearGradient>
        <linearGradient x1="100%" y1="58.5853097%" x2="-0.0486929981%" y2="58.5853097%" id="linearGradient-2">
            <stop stop-color="#0952EC" offset="0%"></stop>
            <stop stop-color="#589DEE" offset="100%"></stop>
        </linearGradient>
        <linearGradient x1="0.0157493984%" y1="50.0044408%" x2="100.032937%" y2="50.0044408%" id="linearGradient-3">
            <stop stop-color="#0952EC" offset="0%"></stop>
            <stop stop-color="#589DEE" offset="100%"></stop>
        </linearGradient>
        <linearGradient x1="99.959518%" y1="50.4915137%" x2="-0.198119506%" y2="50.4915137%" id="linearGradient-4">
            <stop stop-color="#0952EC" offset="0%"></stop>
            <stop stop-color="#589DEE" offset="100%"></stop>
        </linearGradient>
    </defs>
    <g id="Welcome" stroke="none" stroke-width="1" fill="none" fill-rule="evenodd">
        <g id="lpw-addons-1.1" transform="translate(-387.000000, -331.000000)">
            <g id="startup" transform="translate(387.000000, 331.000000)">
                <path d="M17.8734172,0.0056791822 C17.3604368,0.0258815571 16.8572964,0.150462869 16.3979511,0.378076292 C16.3979511,0.378076292 7.23673559,4.75350664 7.23673559,14.2560977 L7.23673559,32.0735149 C7.23673559,34.0414956 8.84356275,35.6370118 10.8255209,35.6370118 L25.1806609,35.6370118 C27.1626191,35.6370118 28.7694463,34.0414956 28.7694463,32.0735149 L28.7694463,14.2560977 C28.7694463,4.75350664 19.6082308,0.378076292 19.6082308,0.378076292 C19.0704759,0.111404944 18.4739676,-0.0165434302 17.8734172,0.0056791822 Z" id="path842" fill="url(#linearGradient-1)" fill-rule="nonzero"></path>
                <path d="M7.26499397,19.2103634 L2.0699096,21.7930702 C0.847419204,22.3985257 0.0762038282,23.6397045 0.0796192446,24.9961859 L0.0796192446,28.5513312 C0.079829194,30.5224015 1.68899702,32.1202203 3.67406736,32.1204175 L7.26499397,32.1204175 L7.26499397,19.2103634 Z" id="path849" fill="url(#linearGradient-2)" fill-rule="nonzero"></path>
                <path d="M28.769447,19.1767902 L33.956363,21.7554213 C35.1769388,22.3599288 35.9469428,23.5991676 35.9435235,24.9535246 L35.9435235,28.5030818 C35.9432889,30.4710352 34.3366587,32.0663143 32.3547274,32.0665114 L28.769447,32.0665114 L28.769447,19.1767902 Z" id="path856" fill="url(#linearGradient-3)" fill-rule="nonzero"></path>
                <path d="M21.5918742,14.2561651 C21.5918742,15.2012611 21.21378,16.1076505 20.5407516,16.7759364 C19.8677233,17.4442224 18.9548984,17.819662 18.0030896,17.819662 C17.0512807,17.819662 16.1384559,17.4442224 15.4654275,16.7759364 C14.7923992,16.1076505 14.4143049,15.2012611 14.4143049,14.2561651 C14.4143049,13.311069 14.7923992,12.4046796 15.4654275,11.7363937 C16.1384559,11.0681078 17.0512807,10.6926682 18.0030896,10.6926682 C18.9548984,10.6926682 19.8677233,11.0681078 20.5407516,11.7363937 C21.21378,12.4046796 21.5918742,13.311069 21.5918742,14.2561651 Z" id="path858" fill="#FFFFFF"></path>
                <path d="M21.5988861,35.6369445 L21.5988861,39.8268497 C23.3001371,40.4275336 24.8459511,41.439942 26.0673434,42.812626 C26.3712157,42.7789554 26.676519,42.7654871 26.9820638,42.7654871 C31.2424696,42.7692582 34.9126947,45.7474923 35.7647743,49.8924136 L0.2484181,49.8924136 C1.10102528,45.7449334 4.77509982,42.7658912 9.03813843,42.7654871 C9.34380119,42.7685175 9.64910451,42.7856895 9.95285883,42.8193601 C11.1741277,41.4444538 12.7188396,40.4284764 14.4213161,39.8266476 L14.4213161,35.6367424 L21.5988861,35.6369445 Z" id="path896" fill="url(#linearGradient-4)"></path>
                <path d="M17.9704175,23.1376678 C17.4943505,23.1462399 17.0412293,23.3423203 16.7108111,23.6827407 C16.380393,24.0231611 16.1997668,24.4800125 16.2086986,24.9527165 L16.2086986,28.5038899 C16.2086986,29.4881584 17.0122732,30.2860657 18.0035328,30.2860657 C18.9947923,30.2860657 19.798367,29.4881584 19.798367,28.5038899 L19.798367,24.9527165 C19.8075201,24.4686051 19.6178735,24.0016396 19.2730621,23.6592616 C18.9282506,23.3168837 18.4579674,23.1285769 17.9704175,23.1376678 L17.9704175,23.1376678 Z" id="path909" fill="#FFFFFF" fill-rule="nonzero"></path>
            </g>
        </g>
    </g>
</svg>