<?xml version="1.0" encoding="UTF-8"?>
<svg width="1080px" height="1080px" viewBox="0 0 1080 1080" version="1.1" xmlns="http://www.w3.org/2000/svg" xmlns:xlink="http://www.w3.org/1999/xlink">
    <title>Shape</title>
    <g id="Page-1" stroke="none" stroke-width="1" fill="none" fill-rule="evenodd">
        <g id="wap-line" fill="#FFFFFF" fill-rule="nonzero">
            <g id="Group">
                <path d="M1080,526.092 C1080,816.648 842.652,1052.184 549.816,1052.184 C460.234343,1052.32835 372.071797,1029.8099 293.532,986.724 L0,1080 L95.7,797.736 C45.821287,715.916288 19.4945372,621.916504 19.62,526.092 C19.62,235.536 256.992,0 549.816,0 C842.676,0 1080,235.536 1080,526.092 Z M549.816,83.784 C304.008,83.784 104.064,282.204 104.064,526.092 C104.064,622.872 135.612,712.5 188.976,785.412 L133.284,949.68 L304.584,895.236 C377.415803,943.087165 462.68335,968.525157 549.828,968.40046 C795.6,968.40046 995.58,770.004 995.58,526.116 C995.58,282.228 795.612,83.784 549.816,83.784 Z M817.548,647.256 C814.272,641.892 805.62,638.652 792.636,632.208 C779.628,625.764 715.716,594.552 703.836,590.268 C691.92,585.972 683.232,583.812 674.58,596.712 C665.928,609.624 641.016,638.652 633.42,647.256 C625.836,655.884 618.264,656.964 605.256,650.508 C592.272,644.064 550.404,630.432 500.76,586.512 C462.132,552.336 436.044,510.144 428.46,497.22 C420.888,484.32 427.668,477.348 434.16,470.928 C440.016,465.144 447.168,455.868 453.66,448.344 C460.176,440.808 462.336,435.444 466.644,426.828 C471,418.224 468.828,410.7 465.564,404.232 C462.324,397.788 436.308,334.332 425.484,308.508 C414.66,282.708 403.848,287.004 396.252,287.004 C388.68,287.004 380.004,285.924 371.34,285.924 C362.676,285.924 348.588,289.152 336.672,302.052 C324.768,314.964 291.204,346.164 291.204,409.608 C291.204,473.064 337.752,534.372 344.268,542.964 C350.76,551.556 434.148,686.004 566.268,737.64 C698.4,789.252 698.4,772.032 722.232,769.872 C746.04,767.724 799.104,738.684 809.976,708.588 C820.776,678.444 820.776,652.632 817.548,647.256 L817.548,647.256 Z" id="Shape"></path>
            </g>
        </g>
    </g>
</svg>