<svg width="40" height="35" xmlns="http://www.w3.org/2000/svg"><path d="M23.633.05H3.163C1.42.05 0 1.48 0 3.238v26.618c0 .433.35.785.781.785h.88v3.525c0 .433.35.784.78.784h4.961a.783.783 0 00.781-.784V30.64h10.431v3.525c0 .433.35.784.781.784h4.96a.783.783 0 00.782-.784V30.64h.879a.783.783 0 00.781-.785V3.237c0-1.757-1.419-3.186-3.164-3.186zM3.163 1.62h20.47c.883 0 1.602.726 1.602 1.617v2.514a3.547 3.547 0 00-2.023-.632H3.586c-.75 0-1.447.234-2.023.632V3.237a1.61 1.61 0 011.6-1.617zm22.073 15.97H14.18V6.69h9.031c1.116 0 2.024.916 2.024 2.043v8.857zM1.563 8.732c0-1.127.907-2.043 2.023-2.043h9.031v10.9H1.562V8.732zm0 14.044h2.892v1.739H1.562v-1.739zM6.62 33.38H3.223v-2.74H6.62v2.74zm16.953 0h-3.398v-2.74h3.398v2.74zM1.562 29.07v-2.986h3.674a.783.783 0 00.781-.785v-3.307a.783.783 0 00-.781-.785H1.563v-2.049h23.672v2.049H21.56a.783.783 0 00-.781.785v4.101c0 .434.35.785.781.785h3.674v2.192H1.563zm23.673-3.762h-2.893v-2.532h2.893v2.532z"/><path d="M17.99 21.207H8.807a.783.783 0 00-.78.785v4.101c0 .433.349.785.78.785h9.183a.783.783 0 00.781-.785v-4.101a.783.783 0 00-.781-.785zm-.781 4.101h-7.62v-2.532h7.62v2.532zM40 6.423C40 3.29 37.47.74 34.361.74c-3.109 0-5.638 2.549-5.638 5.682 0 2.866 2.117 5.243 4.857 5.627v22.115c0 .433.35.784.781.784a.783.783 0 00.782-.784V12.05C37.883 11.666 40 9.288 40 6.423zm-5.639 4.112c-2.247 0-4.076-1.845-4.076-4.112 0-2.268 1.829-4.113 4.076-4.113 2.248 0 4.077 1.845 4.077 4.113 0 2.267-1.829 4.112-4.077 4.112z"/></svg>