<svg width="40" height="40" xmlns="http://www.w3.org/2000/svg"><g fill-rule="evenodd"><path d="M20.049 31.257a3.47 3.47 0 01-3.467-3.467v-4.332H12.25a3.471 3.471 0 01-3.467-3.466 3.47 3.47 0 013.467-3.467h4.333v-4.333a3.471 3.471 0 013.466-3.466 3.471 3.471 0 013.467 3.466v4.334h4.332a3.47 3.47 0 013.467 3.466 3.47 3.47 0 01-3.467 3.467h-4.332v4.331a3.471 3.471 0 01-3.467 3.467zm-7.8-13a1.734 1.734 0 000 3.467h5.2c.478 0 .866.39.866.867v5.2c0 .956.779 1.733 1.733 1.733.954 0 1.733-.777 1.733-1.734v-5.2c0-.478.388-.866.866-.866h5.199a1.734 1.734 0 000-3.466h-5.2a.867.867 0 01-.865-.865v-5.2c0-.956-.779-1.733-1.733-1.733-.954 0-1.733.777-1.733 1.732v5.2a.866.866 0 01-.866.866h-5.2z"/><path d="M20.049 39.922C9.059 39.922.117 30.981.117 19.991S9.058.059 20.049.059c10.99 0 19.932 8.94 19.932 19.932-.002 10.99-8.941 19.931-19.932 19.931zm0-38.13c-10.034 0-18.198 8.165-18.198 18.2S10.015 38.19 20.05 38.19s18.198-8.163 18.198-18.198-8.164-18.2-18.198-18.2z"/></g></svg>