<svg width="40" height="40" xmlns="http://www.w3.org/2000/svg"><path d="M12.743 31.373c-2.304 0-4.17 1.918-4.17 4.285 0 2.366 1.866 4.284 4.17 4.284 2.303 0 4.17-1.918 4.17-4.284 0-2.367-1.867-4.285-4.17-4.285zm0 6.665c-1.28 0-2.317-1.066-2.317-2.38 0-1.315 1.037-2.38 2.317-2.38 1.28 0 2.316 1.065 2.316 2.38 0 1.314-1.037 2.38-2.316 2.38zm17.607-6.665c-2.303 0-4.17 1.918-4.17 4.285 0 2.366 1.868 4.284 4.17 4.284 2.304 0 4.171-1.918 4.171-4.284 0-2.367-1.867-4.285-4.17-4.285zm0 6.665c-1.279 0-2.316-1.066-2.316-2.38 0-1.315 1.037-2.38 2.317-2.38 1.28 0 2.316 1.065 2.316 2.38 0 1.314-1.037 2.38-2.316 2.38zm9.407-31.656A1.148 1.148 0 0039.016 6L8.85 5.572l-.834-2.618C7.43 1.204 5.833.022 4.031.003H.927A.94.94 0 000 .955a.94.94 0 00.927.952H4.03c1.008.023 1.895.687 2.225 1.666l5.884 18.232-.463 1.095a4.678 4.678 0 00.417 4.141 4.285 4.285 0 003.475 2h18.025a.94.94 0 00.927-.952.94.94 0 00-.927-.952H15.57a2.351 2.351 0 01-1.946-1.143 2.68 2.68 0 01-.232-2.285l.371-.857 19.508-2.094c2.143-.243 3.905-1.844 4.402-4l2.224-9.567a.827.827 0 00-.139-.81zm-3.892 9.949c-.301 1.387-1.448 2.41-2.827 2.523L13.762 20.9 9.452 7.476l28.405.429-1.992 8.426z"/></svg>