<svg width="40" height="27" xmlns="http://www.w3.org/2000/svg"><path d="M1.115 10.281l5.88 2.408v9.916c0 2.855 6.118 4.347 12.16 4.347 6.043 0 12.16-1.492 12.16-4.347V12.69l5.21-2.134v5.151a1.575 1.575 0 00-1.252 1.186l-.451 2.091c-.095.454.02.925.312 1.284.312.382.78.603 1.272.6h1.977c.492.003.96-.218 1.271-.6.293-.359.408-.83.313-1.284l-.449-2.086a1.579 1.579 0 00-1.255-1.19V8.693a1.71 1.71 0 00-1.067-1.586L20.458.26a3.425 3.425 0 00-2.606 0L1.115 7.108a1.713 1.713 0 000 3.173zm28.463 12.324c0 .92-3.957 2.609-10.423 2.609-6.465 0-10.422-1.689-10.422-2.609V13.4l9.12 3.728a3.427 3.427 0 002.612 0l9.113-3.728v9.205zm6.99-3.477l.374-1.74h.905l.374 1.74h-1.653zM18.508 1.866a1.7 1.7 0 011.295 0l16.729 6.798v.01l-6.414 2.629-.018.007-10.297 4.213c-.415.17-.88.17-1.296 0l-10.19-4.145a.844.844 0 00-.26-.107l-6.28-2.553 16.73-6.852z"/></svg>