<svg width="42" height="30" xmlns="http://www.w3.org/2000/svg"><g fill="none"><path d="M42 26a4 4 0 01-4 4H4a4 4 0 01-4-4V4a4 4 0 014-4h34a4 4 0 014 4v22z" fill="#1976D2"/><path d="M19.255 11l-2.113 4.683L15.039 11h-2.695v6.726L9.341 11H7.067L4 17.981h1.815l.671-1.558h3.432l.682 1.558h3.465v-5.185l2.299 5.185h1.563l2.351-5.095v5.095H22V11h-2.745zm-12.12 3.915l1.026-2.44 1.066 2.44H7.135zm27.748-.502L38 11.018h-2.217l-1.994 2.164L31.86 11H25v6.982h6.635l2.092-2.311L35.767 18h2.21l-3.094-3.587zm-4.155 2.103h-4.011v-1.381h3.838v-1.323h-3.838v-1.308l4.234.012 1.693 1.897-1.916 2.103z" fill="#FFF"/></g></svg>