<svg width="69" height="69" xmlns="http://www.w3.org/2000/svg"><g fill="none" fill-rule="evenodd"><circle fill="#F8E8E0" cx="34.5" cy="34.5" r="34.5"/><g fill="#E29F7D" fill-rule="nonzero"><path d="M49.562 47.739l-3.275-3.274a6.405 6.405 0 001.074-3.55 6.453 6.453 0 00-6.445-6.445 6.453 6.453 0 00-6.446 6.446 6.453 6.453 0 006.446 6.445c1.31 0 2.529-.398 3.549-1.074l3.274 3.275a1.288 1.288 0 001.823 0 1.288 1.288 0 000-1.823zm-8.646-2.956a3.872 3.872 0 01-3.868-3.867 3.872 3.872 0 013.868-3.868 3.872 3.872 0 013.867 3.868 3.872 3.872 0 01-3.867 3.867z"/><path d="M45.49 31.154l-4.574-4.473v-5.103a1.289 1.289 0 10-2.579 0v2.581l-4.9-4.792a1.289 1.289 0 00-1.802 0L19.58 31.154a1.916 1.916 0 00-.58 1.382c0 1.066.868 1.934 1.934 1.934h1.933v7.09a3.227 3.227 0 003.223 3.223h4.512a1.289 1.289 0 100-2.578H26.09a.646.646 0 01-.644-.645v-8.38a1.29 1.29 0 00-1.29-1.289h-1.64l10.02-9.8 11.151 10.905c.51.5 1.328.489 1.823-.02a1.287 1.287 0 00-.02-1.822z"/></g></g></svg>