<svg width="69" height="69" xmlns="http://www.w3.org/2000/svg"><g fill="none" fill-rule="evenodd"><circle fill="#DDF4F3" cx="34.5" cy="34.5" r="34.5"/><g fill="#7BC3C0" fill-rule="nonzero"><path d="M45.46 23.54A15.399 15.399 0 0034.5 19c-4.14 0-8.033 1.612-10.96 4.54A15.399 15.399 0 0019 34.5c0 4.14 1.612 8.033 4.54 10.96A15.399 15.399 0 0034.5 50c2.834 0 5.608-.772 8.02-2.234a1.211 1.211 0 00-1.255-2.071 13.053 13.053 0 01-6.765 1.883c-7.211 0-13.078-5.867-13.078-13.078 0-7.211 5.867-13.078 13.078-13.078 7.211 0 13.078 5.867 13.078 13.078 0 2.579-.767 5.089-2.217 7.259a1.21 1.21 0 002.013 1.346A15.439 15.439 0 0050 34.5c0-4.14-1.612-8.033-4.54-10.96z"/><path d="M30.764 41.62a1.21 1.21 0 001.641-.49l6.546-12.109a1.21 1.21 0 10-2.13-1.151l-6.546 12.109a1.21 1.21 0 00.49 1.64zm1.738-11.358a3.03 3.03 0 00-3.027-3.028 3.03 3.03 0 00-3.028 3.028 3.03 3.03 0 003.028 3.027 3.03 3.03 0 003.027-3.027zm-3.027.605a.606.606 0 11.001-1.212.606.606 0 01-.001 1.212zm9.99 10.899a3.03 3.03 0 003.027-3.028 3.03 3.03 0 00-3.027-3.027 3.03 3.03 0 00-3.028 3.027 3.03 3.03 0 003.028 3.028zm0-3.633a.606.606 0 11-.002 1.212.606.606 0 01.002-1.212z"/></g></g></svg>