<svg width="16" height="20" xmlns="http://www.w3.org/2000/svg"><path d="M10.731 7.276a.464.464 0 00-.46.467v8.832c0 .258.206.467.46.467s.46-.21.46-.467V7.743a.464.464 0 00-.46-.467zm-5.425 0a.464.464 0 00-.46.467v8.832c0 .258.206.467.46.467s.46-.21.46-.467V7.743a.464.464 0 00-.46-.467z"/><path d="M1.352 5.987V17.5c0 .68.245 1.32.674 1.778A2.25 2.25 0 003.669 20h8.699a2.247 2.247 0 001.643-.722c.428-.458.674-1.098.674-1.778V5.987a1.785 1.785 0 001.29-1.956 1.767 1.767 0 00-1.74-1.554H11.88v-.584a1.851 1.851 0 00-.53-1.31 1.792 1.792 0 00-1.29-.536H5.977a1.792 1.792 0 00-1.29.536 1.851 1.851 0 00-.53 1.31v.584H1.801c-.881 0-1.626.665-1.74 1.553a1.785 1.785 0 001.29 1.956zm11.016 13.078h-8.7c-.785 0-1.397-.686-1.397-1.565V6.028h11.494V17.5c0 .88-.611 1.565-1.397 1.565zM5.076 1.893a.907.907 0 01.26-.65.88.88 0 01.641-.262h4.083c.24-.004.47.09.64.262.17.172.264.406.26.65v.584H5.077v-.584zM1.802 3.41h12.432c.457 0 .828.377.828.841 0 .465-.37.841-.828.841H1.802a.834.834 0 01-.827-.84c0-.465.37-.842.827-.842z"/><path d="M8.018 7.276a.464.464 0 00-.46.467v8.832c0 .258.206.467.46.467s.46-.21.46-.467V7.743a.464.464 0 00-.46-.467z"/></svg>