<svg width="50" height="50" xmlns="http://www.w3.org/2000/svg"><g fill="none"><path d="M8.426 33.256h36.377c2.381 0 4.437-1.703 4.841-4.05l.007-.04C52.138 14.584 41.059.009 24.991.009A24.88 24.88 0 009.198 5.63l-.008.007a2.11 2.11 0 00-.768 1.637c.002 4.84.003 25.982.003 25.982z" fill="#F73C9A"/><path d="M49.65 29.166c-9.076 7.428-22.126 7.538-31.327.24-.008-.01-9.475-6.612-9.475-19.59 0-1.425.122-2.823.352-4.185C3.582 10.218 0 17.197 0 24.999c0 12.977 9.466 19.58 9.475 19.59 9.238 7.326 22.358 7.187 31.438-.332v.002a25.133 25.133 0 006.685-8.602 25.026 25.026 0 002.052-6.491z" fill="#E0248B"/><g transform="translate(2.548 10.878)"><path d="M42.421 24.207l2.407-15.145a5.273 5.273 0 00-3.08-4.792 46.475 46.475 0 00-31.065-2.687v22.624H42.42z" fill="#05CDFF"/><path d="M10.946 24.452V1.653c0-.046 0-.093.002-.139A46.41 46.41 0 003.135 4.27a5.27 5.27 0 00-3.08 4.792v22.8a46.468 46.468 0 0144.773 0V20.148a46.47 46.47 0 00-33.882 4.304z" fill="#0091C8"/><path d="M38.345 18.019V5.325a38.524 38.524 0 00-25.13-2.31v15.004h25.13zm6.152 15.494c.174-.418.287-.89.331-1.418V9.094c-.243 2.887-2.483 4.07-5.963 4.115v20.304h5.632z" fill="#A0EBFF"/><path d="M38.345 17.634a38.476 38.476 0 00-4.952-.82 5.337 5.337 0 01-4.158-2.739c-.382-.697-.77-1.395-1.1-1.985a2.468 2.468 0 01.063-2.525 3.21 3.21 0 00.485-2.015 3.227 3.227 0 00-2.976-2.914 3.218 3.218 0 00-1.863 5.982c.766.452.985 1.462.503 2.21-.359.558-.737 1.141-1.021 1.573a203.742 203.742 0 00-4.744-7.54c-.526-.805-1.77-.66-2.291.268l-.029.05c-.768 1.352-2.828.81-2.828-.744V2.96c-.238.058-.475.116-.712.178v-.003l-.258.069v.001A38.476 38.476 0 006.3 5.437v21.589a38.525 38.525 0 0132.045-.11v-8.054h-.004.004v-1.228z" fill="#05CDFF"/><path d="M39.17 28.59V13.203c-1.1.037-2.335-.047-3.676-.233v23.001c4.844.67 8.293.015 9.15-2.87l-.046.01c-2.82.54-5.427-1.65-5.427-4.521z" fill="#05CDFF"/><circle fill="#FFC305" cx="26.941" cy="7.041" r="3.218"/><path d="M20.77 19.947a202.232 202.232 0 016.563-10.12c.406-.59 1.362-.408 1.763.336A210.08 210.08 0 0135.4 22.757c.396.87-.066 1.516-.834 1.185a30.706 30.706 0 00-7.207-2.092c-1.886-.304-7.018-1.194-6.59-1.903z" fill="#FFF"/><path d="M9.568 22.287a209.53 209.53 0 018.186-15.963c.522-.927 1.765-1.073 2.292-.267a205.17 205.17 0 018.451 13.99c.544.995-.091 1.975-1.137 1.803a30.727 30.727 0 00-16.715 1.972c-.993.417-1.588-.413-1.077-1.535z" fill="#0091C8"/><path d="M9.39 33.117V12.97c-2.472.342-4.58.338-6.165-.13v20.277H9.39z" fill="#A0EBFF"/><path d="M3.422 28.71V12.896C1.449 12.374.232 11.179.056 9.094v23c.315 3.736 3.97 4.62 9.334 3.877v-3.146c-3.483-.045-5.724-1.227-5.968-4.115z" fill="#05CDFF"/></g></g></svg>