<svg width="19" height="15" xmlns="http://www.w3.org/2000/svg"><g fill="#FFF"><path d="M18.36 2.367a2.04 2.04 0 00-1.5-.632h-2.996v-.036c0-.452-.18-.886-.487-1.175a1.65 1.65 0 00-1.174-.488H6.788A1.662 1.662 0 005.108 1.7v.036H2.13a2.04 2.04 0 00-1.498.632A2.15 2.15 0 000 3.867v9c0 .597.235 1.121.632 1.5.379.38.92.633 1.498.633h14.73a2.04 2.04 0 001.5-.633c.378-.379.631-.921.631-1.5v-9c0-.596-.235-1.12-.632-1.5zm-.308 10.5h-.018c0 .326-.126.615-.343.832a1.158 1.158 0 01-.83.343H2.13c-.326 0-.615-.126-.831-.343a1.16 1.16 0 01-.343-.832v-9c0-.325.126-.614.343-.83.216-.218.505-.344.83-.344h3.484a.486.486 0 00.488-.488V1.68a.71.71 0 01.198-.506.709.709 0 01.506-.2h5.397c.199 0 .38.073.506.2a.71.71 0 01.198.506v.524c0 .27.217.488.488.488h3.484c.325 0 .614.126.83.343.217.217.343.506.343.831v9z"/><path d="M9.495 3.922a4.446 4.446 0 00-3.14 1.3 4.413 4.413 0 00-1.3 3.145c0 1.23.505 2.35 1.3 3.145a4.403 4.403 0 003.14 1.301 4.446 4.446 0 003.142-1.301 4.413 4.413 0 001.3-3.145 4.458 4.458 0 00-1.3-3.144 4.446 4.446 0 00-3.142-1.301zm2.456 6.921a3.526 3.526 0 01-2.456 1.012 3.526 3.526 0 01-2.455-1.012 3.457 3.457 0 01-1.01-2.457c0-.958.397-1.826 1.01-2.458a3.45 3.45 0 012.455-1.012c.957 0 1.824.397 2.456 1.012.631.632 1.01 1.5 1.01 2.458a3.384 3.384 0 01-1.01 2.457z"/><circle cx="15.922" cy="4.789" r="1"/></g></svg>