<svg width="45" height="30" xmlns="http://www.w3.org/2000/svg"><g fill="none"><path d="M42.227 6.251h-5.049L5.661 21.615v5.466c.054 1.59 1.332 2.86 2.907 2.887h33.66c1.52-.028 2.73-1.296 2.703-2.833l-.001-.054V9.24c.085-1.563-1.1-2.9-2.646-2.987a3.725 3.725 0 00-.057-.003z" fill="#2BA037"/><path d="M39.32 6.354V20.74c0 1.595-1.279 2.887-2.856 2.887H2.805C1.256 23.626 0 22.357 0 20.791V2.952C-.028 1.386 1.205.093 2.754.065h33.711c1.576 0 2.855 1.292 2.855 2.887v3.402z" fill="#3BB54A"/><g transform="translate(3.026 2.664)" fill="#2BA037"><ellipse cx="31.143" cy="15.858" rx="2.04" ry="2.062"/><ellipse cx="16.609" cy="9.207" rx="9.078" ry="9.177"/><ellipse cx="2.074" cy="2.453" rx="2.04" ry="2.062"/></g></g></svg>