<svg width="50" height="50" xmlns="http://www.w3.org/2000/svg"><g fill="none"><path d="M24.406 1.932l4.232 8.912a3.163 3.163 0 002.37 1.8l9.386 1.418a3.371 3.371 0 011.736 5.679l-6.735 6.824a3.43 3.43 0 00-.92 2.963l1.597 9.683a3.189 3.189 0 01-4.552 3.517l-8.48-4.634a3.001 3.001 0 00-2.899 0l-8.48 4.634a3.189 3.189 0 01-4.553-3.517l1.598-9.68a3.43 3.43 0 00-.92-2.963L1.05 19.744a3.371 3.371 0 011.736-5.678l9.386-1.418a3.163 3.163 0 002.37-1.8l4.231-8.916a3.078 3.078 0 015.632 0z" fill="#F3D55B"/><path d="M35.4 26.566a3.464 3.464 0 00-.932 2.967l1.605 9.679a3.196 3.196 0 01-4.56 3.527l-8.475-4.646a3.054 3.054 0 00-2.896 0l-8.474 4.646a3.196 3.196 0 01-4.56-3.527l.357-2.137C28.76 24.2 25.447 6.75 23.512.771c.378.317.682.714.89 1.162l4.229 8.92a3.212 3.212 0 002.38 1.792l9.379 1.42a3.368 3.368 0 011.735 5.678L35.4 26.566z" fill="#F0C419"/><circle fill="#FF5364" cx="36.217" cy="36.234" r="13.766"/><path d="M34.244 35.625a.86.86 0 00-1.216 0l-1.973 1.973-1.973-1.973a.86.86 0 00-1.217 1.217l1.973 1.973-1.973 1.973a.86.86 0 101.217 1.216l1.973-1.972 1.973 1.972a.86.86 0 001.216-1.216l-1.973-1.973 1.973-1.973a.86.86 0 000-1.217zm9.716 4.911h-5.626a16.119 16.119 0 012.357-2.151c1.937-1.564 4.13-3.339 4.13-5.593a4.302 4.302 0 00-8.604 0 .86.86 0 001.72 0 2.581 2.581 0 015.163 0c0 1.434-1.855 2.932-3.492 4.255-1.743 1.41-3.391 2.74-3.391 4.35 0 .474.385.86.86.86h6.883a.86.86 0 000-1.721z" fill="#FFF"/></g></svg>