<svg width="36" height="50" xmlns="http://www.w3.org/2000/svg"><defs><linearGradient x1=".005%" y1="49.992%" x2="100.005%" y2="49.992%" id="a"><stop stop-color="#A2CDF5" offset="0%"/><stop stop-color="#589DEE" offset="100%"/></linearGradient><linearGradient x1="100%" y1="58.585%" x2="-.049%" y2="58.585%" id="b"><stop stop-color="#0952EC" offset="0%"/><stop stop-color="#589DEE" offset="100%"/></linearGradient><linearGradient x1=".016%" y1="50.004%" x2="100.033%" y2="50.004%" id="c"><stop stop-color="#0952EC" offset="0%"/><stop stop-color="#589DEE" offset="100%"/></linearGradient><linearGradient x1="99.96%" y1="50.492%" x2="-.198%" y2="50.492%" id="d"><stop stop-color="#0952EC" offset="0%"/><stop stop-color="#589DEE" offset="100%"/></linearGradient></defs><g fill="none" fill-rule="evenodd"><path d="M17.873.006a3.643 3.643 0 00-1.475.372S7.237 4.754 7.237 14.256v17.818c0 1.967 1.607 3.563 3.589 3.563H25.18c1.982 0 3.588-1.596 3.588-3.563V14.256c0-9.502-9.16-13.878-9.16-13.878a3.605 3.605 0 00-1.736-.372z" fill="url(#a)" fill-rule="nonzero"/><path d="M7.265 19.21L2.07 21.793a3.567 3.567 0 00-1.99 3.203v3.555c0 1.971 1.609 3.57 3.594 3.57h3.591V19.21z" fill="url(#b)" fill-rule="nonzero"/><path d="M28.77 19.177l5.186 2.578a3.561 3.561 0 011.988 3.199v3.55c0 1.967-1.607 3.562-3.59 3.563H28.77v-12.89z" fill="url(#c)" fill-rule="nonzero"/><path d="M21.592 14.256a3.55 3.55 0 01-1.051 2.52 3.602 3.602 0 01-2.538 1.044 3.602 3.602 0 01-2.538-1.044 3.55 3.55 0 01-1.05-2.52 3.55 3.55 0 011.05-2.52 3.602 3.602 0 012.538-1.043c.952 0 1.865.375 2.538 1.043a3.55 3.55 0 011.05 2.52z" fill="#FFF"/><path d="M21.599 35.637v4.19c1.701.6 3.247 1.613 4.468 2.986.304-.034.61-.048.915-.048 4.26.004 7.93 2.982 8.783 7.127H.248c.853-4.147 4.527-7.126 8.79-7.127.306.004.611.02.915.054a10.764 10.764 0 014.468-2.992v-4.19H21.6z" fill="url(#d)"/><path d="M17.97 23.138a1.8 1.8 0 00-1.26.545c-.33.34-.51.797-.501 1.27v3.55c0 .985.803 1.783 1.795 1.783.99 0 1.794-.798 1.794-1.782v-3.551c.01-.484-.18-.951-.525-1.294a1.801 1.801 0 00-1.303-.521z" fill="#FFF" fill-rule="nonzero"/></g></svg>