<svg width="89" height="30" xmlns="http://www.w3.org/2000/svg"><g fill="none"><path d="M42 26a4 4 0 01-4 4H4a4 4 0 01-4-4V4a4 4 0 014-4h34a4 4 0 014 4v22z" fill="#1565C0"/><path d="M12.186 10L9.56 17.832s-.667-3.313-.733-3.729c-1.495-3.411-3.701-3.221-3.701-3.221L7.726 21v-.002h3.161L15.258 10h-3.072zm2.503 11h2.871l1.736-11h-2.907l-1.7 11zm20.319-11h-3.021l-4.71 11h2.852l.588-1.571h3.596L34.619 21h2.613l-2.224-11zm-3.495 7.328l1.563-4.157.818 4.157h-2.381zm-8.144-4.122c0-.606.498-1.057 1.926-1.057.928 0 1.991.674 1.991.674l.466-2.309s-1.358-.515-2.691-.515c-3.019 0-4.576 1.444-4.576 3.272 0 3.306 3.979 2.853 3.979 4.551 0 .291-.231.964-1.888.964-1.662 0-2.759-.609-2.759-.609l-.495 2.216s1.063.606 3.117.606c2.059 0 4.915-1.54 4.915-3.752 0-2.661-3.985-2.853-3.985-4.041z" fill="#FFF"/><path d="M9.212 15.945l-.966-4.748s-.437-1.029-1.573-1.029h-4.44s5.661 1.672 6.979 5.777z" fill="#FFC107"/><path d="M89 26a4 4 0 01-4 4H51a4 4 0 01-4-4V4a4 4 0 014-4h34a4 4 0 014 4v22z" fill="#3F51B5"/><path d="M74 5c-5.523 0-10 4.477-10 10s4.477 10 10 10 10-4.477 10-10S79.523 5 74 5z" fill="#FFC107"/><path d="M66.014 21a9.983 9.983 0 01-1.176-2h5.325a9.9 9.9 0 00.637-2h-6.598A9.976 9.976 0 0164 15h7c0-.686-.07-1.354-.201-2h-6.598a9.964 9.964 0 01.637-2h5.325a9.936 9.936 0 00-1.176-2h-2.973c.437-.58.93-1.122 1.481-1.595A9.955 9.955 0 0061 5c-5.523 0-10 4.477-10 10s4.477 10 10 10c3.269 0 6.162-1.575 7.986-4h-2.972z" fill="#FF3D00"/></g></svg>