<svg width="69" height="69" xmlns="http://www.w3.org/2000/svg"><g fill="none" fill-rule="evenodd"><circle fill="#E4E8F6" cx="34.5" cy="34.5" r="34.5"/><path d="M22.47 32.787a1.21 1.21 0 010-1.712l7.09-7.09a1.211 1.211 0 011.712 0l4.458 4.458 7.02-7.021h-3.11a1.21 1.21 0 110-2.422h6.034c.68 0 1.211.555 1.211 1.21v6.035a1.21 1.21 0 11-2.422 0v-3.11l-7.877 7.877a1.21 1.21 0 01-1.712 0l-4.458-4.458-6.234 6.233a1.211 1.211 0 01-1.713 0zm5.181 8.858v7.144A1.21 1.21 0 0126.441 50h-6.23A1.21 1.21 0 0119 48.79v-7.145c0-.67.542-1.211 1.21-1.211h6.23c.67 0 1.211.542 1.211 1.21zm-2.421 1.21h-3.808v4.723h3.808v-4.723zm13.596-5.817V48.79A1.21 1.21 0 0137.615 50h-6.23a1.21 1.21 0 01-1.21-1.21V37.037c0-.668.541-1.21 1.21-1.21h6.23c.669 0 1.21.542 1.21 1.21zm-2.422 1.211h-3.808v9.33h3.808v-9.33zM50 32.433v16.356A1.21 1.21 0 0148.79 50h-6.23a1.21 1.21 0 01-1.211-1.21V32.432c0-.67.542-1.211 1.21-1.211h6.23A1.21 1.21 0 0150 32.431zm-2.422 1.21H43.77v13.935h3.808V33.643z" fill="#8597D4" fill-rule="nonzero"/></g></svg>