<svg width="22" height="22" xmlns="http://www.w3.org/2000/svg"><defs><linearGradient x1="50%" y1="0%" x2="50%" y2="100%" id="a"><stop stop-color="#FFDA44" offset="0%"/><stop stop-color="#FFAF46" offset="100%"/></linearGradient></defs><path d="M11 0C4.934 0 0 4.934 0 11s4.934 11 11 11 11-4.934 11-11S17.066 0 11 0zm-.458 18.333a1.376 1.376 0 01-1.375-1.375 1.376 1.376 0 012.75 0c0 .759-.617 1.375-1.375 1.375zm1.375-5.591v1.466a.458.458 0 01-.459.459H9.625a.458.458 0 01-.458-.459v-2.291c0-1.011.822-1.834 1.833-1.834 1.01 0 1.833-.822 1.833-1.833 0-1.01-.822-1.833-1.833-1.833-1.01 0-1.833.822-1.833 1.833v.458a.458.458 0 01-.459.459H6.875a.458.458 0 01-.458-.459V8.25A4.589 4.589 0 0111 3.667a4.589 4.589 0 014.583 4.583c0 2.2-1.55 4.063-3.666 4.492z" fill="url(#a)"/></svg>