<svg width="23" height="20" xmlns="http://www.w3.org/2000/svg"><g fill="#FFF"><path d="M11.5 5.714a.489.489 0 01-.172-.031l-6.23-2.381a.476.476 0 010-.89l6.23-2.38a.486.486 0 01.344 0l6.229 2.38a.476.476 0 010 .89l-6.229 2.38a.489.489 0 01-.172.032zM6.606 2.857l4.894 1.87 4.894-1.87L11.5.987l-4.894 1.87z"/><path d="M11.5 13.333a.489.489 0 01-.172-.031l-6.23-2.381a.476.476 0 01-.306-.445V2.857c0-.263.214-.476.479-.476.264 0 .479.213.479.476v7.293l5.75 2.198 5.75-2.198V2.857c0-.263.215-.476.48-.476.264 0 .478.213.478.476v7.62a.476.476 0 01-.306.444l-6.23 2.38a.489.489 0 01-.172.032z"/><path d="M11.5 13.333a.478.478 0 01-.48-.476V5.238c0-.263.216-.476.48-.476s.48.213.48.476v7.62a.478.478 0 01-.48.475zM10.063 20a.478.478 0 01-.384-.19.474.474 0 01.096-.667l1.405-1.048-1.405-1.047a.474.474 0 01-.096-.667.482.482 0 01.671-.095l1.917 1.428a.475.475 0 010 .762l-1.917 1.429a.482.482 0 01-.287.095z"/><path d="M11.5 18.571c-1.449 0-2.82-.068-4.077-.202C5.685 18.194 0 17.453 0 15.239c0-.905.938-1.66 2.787-2.245.304-.093.63.142.63.455 0 .23-.162.422-.38.466-1.533.49-2.079 1.02-2.079 1.323 0 .634 2.037 1.73 6.565 2.183 1.225.131 2.562.198 3.977.198.264 0 .48.213.48.476a.478.478 0 01-.48.476zm3.345-.142a.478.478 0 01-.478-.438.478.478 0 01.44-.513c4.935-.4 7.235-1.573 7.235-2.24 0-.307-.555-.84-2.12-1.336a.476.476 0 11.29-.908c1.85.585 2.788 1.34 2.788 2.244 0 2.348-6.212 3.034-8.116 3.19h-.04z"/></g></svg>