<svg width="17" height="17" xmlns="http://www.w3.org/2000/svg"><g fill="#FFF"><path d="M16.17 8.72a.477.477 0 010-.44l.66-1.291c.366-.72.075-1.577-.664-1.952l-1.327-.674a.498.498 0 01-.27-.355L14.31 2.59c-.144-.789-.906-1.319-1.734-1.206l-1.488.201a.533.533 0 01-.436-.136l-1.08-1a1.585 1.585 0 00-2.144 0l-1.08 1a.533.533 0 01-.436.136l-1.487-.201c-.829-.112-1.59.418-1.735 1.206l-.26 1.417a.498.498 0 01-.27.355l-1.326.674c-.74.375-1.03 1.232-.663 1.952l.66 1.292c.071.14.071.3 0 .438l-.66 1.292c-.367.72-.076 1.577.663 1.953l1.327.674a.498.498 0 01.27.354l.259 1.417c.131.718.775 1.221 1.514 1.221.073 0 .146-.004.22-.015l1.488-.201c.16-.022.32.028.436.136l1.08 1c.3.278.686.417 1.072.417s.772-.14 1.072-.418l1.08-1a.534.534 0 01.436-.135l1.488.201c.828.113 1.59-.417 1.734-1.206l.26-1.417a.498.498 0 01.27-.354l1.326-.674c.74-.376 1.03-1.233.663-1.953l-.66-1.292zM6.46 4.104c1.03 0 1.87.803 1.87 1.79 0 .988-.84 1.791-1.87 1.791-1.032 0-1.871-.803-1.871-1.79 0-.988.839-1.791 1.87-1.791zm-.966 7.963a.52.52 0 01-.36.143.52.52 0 01-.362-.143.473.473 0 010-.69l6.734-6.446c.2-.19.523-.19.722 0 .199.19.199.5 0 .69l-6.734 6.446zm5.047.827c-1.032 0-1.87-.803-1.87-1.79 0-.988.838-1.791 1.87-1.791 1.031 0 1.87.803 1.87 1.79 0 .988-.839 1.791-1.87 1.791z"/><path d="M10.54 10.29c-.468 0-.85.366-.85.815 0 .448.382.813.85.813.47 0 .851-.365.851-.813 0-.45-.381-.814-.85-.814zM6.46 5.082c-.47 0-.85.365-.85.814 0 .448.38.813.85.813.468 0 .85-.365.85-.813 0-.45-.382-.814-.85-.814z"/></g></svg>