<svg width="701" height="750" xmlns="http://www.w3.org/2000/svg"><path d="M582.25 512.5a118.594 118.594 0 00-94.075 46.406l-256.13-145.368a118.27 118.27 0 000-77.076l256.13-145.368C525.2 239.13 592.493 251.513 644.192 219.8c51.699-31.713 71.159-97.31 45.117-152.085-26.042-54.775-89.2-81.093-146.432-61.018-57.231 20.076-90.11 80.081-76.227 139.122L206.156 293.666c-33.354-35.483-84.992-47.004-130.266-29.066C30.616 282.54.883 326.301.883 375c0 48.699 29.733 92.461 75.007 110.4 45.274 17.938 96.912 6.417 130.266-29.066l260.496 147.849c-11.511 49.191 9.366 100.28 52.033 127.332 42.667 27.052 97.78 24.143 137.362-7.25 39.582-31.394 54.965-84.396 38.34-132.102-16.625-47.707-61.617-79.67-112.137-79.663zm0-462.5C620.22 50 651 80.78 651 118.75s-30.78 68.75-68.75 68.75-68.75-30.78-68.75-68.75c.042-37.952 30.798-68.708 68.75-68.75zm-462.5 393.75C81.78 443.75 51 412.97 51 375s30.78-68.75 68.75-68.75S188.5 337.03 188.5 375c-.042 37.952-30.798 68.708-68.75 68.75zM582.25 700c-37.97 0-68.75-30.78-68.75-68.75s30.78-68.75 68.75-68.75S651 593.28 651 631.25c-.042 37.952-30.798 68.708-68.75 68.75z" fill="#FFF"/></svg>