<?xml version="1.0" encoding="UTF-8"?>
<svg width="701px" height="750px" viewBox="0 0 701 750" version="1.1" xmlns="http://www.w3.org/2000/svg" xmlns:xlink="http://www.w3.org/1999/xlink">
    <title>Shape</title>
    <g id="Page-1" stroke="none" stroke-width="1" fill="none" fill-rule="evenodd">
        <g id="share-alt-svgrepo-com" transform="translate(0.882947, -0.012240)" fill="#FFFFFF" fill-rule="nonzero">
            <path d="M581.367053,512.51224 C544.500251,512.517753 509.732715,529.668228 487.292053,558.91849 L231.162365,413.54974 C239.768652,388.578814 239.768652,361.445665 231.162365,336.47474 L487.292053,191.10599 C524.317471,239.143537 591.610318,251.524892 643.309204,219.811919 C695.00809,188.098946 714.467792,122.502107 688.426143,67.7269303 C662.384494,12.9517537 599.225988,-13.3660807 541.994382,6.70954582 C484.762776,26.7851724 451.884634,86.7906143 465.767053,145.83099 L205.273303,293.677865 C171.918622,258.195239 120.281076,246.673743 75.0068846,264.612501 C29.7326932,282.551259 0,326.313662 0,375.01224 C0,423.710817 29.7326932,467.473221 75.0068846,485.411979 C120.281076,503.350737 171.918622,491.82924 205.273303,456.346615 L465.768615,604.195052 C454.257937,653.386535 475.134868,704.474965 517.801961,731.527079 C560.469054,758.579194 615.581776,755.670302 655.164075,724.277001 C694.746374,692.883701 710.129319,639.881447 693.504293,592.174988 C676.879267,544.468529 631.887323,512.50607 581.367053,512.51224 Z M581.367053,50.0122397 C619.336629,50.0122397 650.117053,80.7926632 650.117053,118.76224 C650.117053,156.731816 619.336629,187.51224 581.367053,187.51224 C543.397476,187.51224 512.617053,156.731816 512.617053,118.76224 C512.659247,80.8101544 543.414968,50.0544341 581.367053,50.0122397 L581.367053,50.0122397 Z M118.867053,443.76224 C80.8974763,443.76224 50.1170529,412.981816 50.1170529,375.01224 C50.1170529,337.042663 80.8974763,306.26224 118.867053,306.26224 C156.836629,306.26224 187.617053,337.042663 187.617053,375.01224 C187.574859,412.964325 156.819138,443.720045 118.867053,443.76224 Z M581.367053,700.01224 C543.397476,700.01224 512.617053,669.231816 512.617053,631.26224 C512.617053,593.292663 543.397476,562.51224 581.367053,562.51224 C619.336629,562.51224 650.117053,593.292663 650.117053,631.26224 C650.074859,669.214325 619.319138,699.970045 581.367053,700.01224 L581.367053,700.01224 Z" id="Shape"></path>
        </g>
    </g>
</svg>