<svg width="46" height="50" xmlns="http://www.w3.org/2000/svg"><defs><linearGradient x1="50%" y1="0%" x2="50%" y2="100.15%" id="a"><stop stop-color="#42BFFF" offset="0%"/><stop stop-color="#1174AC" offset="100%"/></linearGradient><linearGradient x1="50.027%" y1="0%" x2="50.027%" y2="100%" id="b"><stop stop-color="#137DBF" offset="0%"/><stop stop-color="#02476C" offset="100%"/></linearGradient><linearGradient x1="50.279%" y1="99.891%" x2="50.279%" y2="0%" id="c"><stop stop-color="#002237" offset="0%"/><stop stop-color="#003352" offset="100%"/></linearGradient><linearGradient x1="50.279%" y1="0%" x2="50.279%" y2="99.891%" id="d"><stop stop-color="#D6D6D6" offset="0%"/><stop stop-color="#A1A1A1" offset="100%"/></linearGradient><linearGradient x1="50%" y1="0%" x2="50%" y2="100%" id="e"><stop stop-color="#D6D6D6" offset="0%"/><stop stop-color="#A1A1A1" offset="100%"/></linearGradient><linearGradient x1="50%" y1="100%" x2="50%" y2="0%" id="f"><stop stop-color="#002237" offset="0%"/><stop stop-color="#003352" offset="100%"/></linearGradient><linearGradient x1="49.988%" y1=".03%" x2="49.988%" y2="99.96%" id="g"><stop stop-color="#FF4D6C" offset="0%"/><stop stop-color="#FF0825" offset="100%"/></linearGradient></defs><g fill="none"><path d="M46 24.516c0-6.414-5.149-11.613-11.5-11.613S23 18.103 23 24.516c0 .176.054.347.153.49l6.909 10.074c.1.141.239.25.4.31a11.22 11.22 0 005.154.679 6.738 6.738 0 005.111 4.3c.28.061.57-.024.775-.227a.866.866 0 00.239-.779 16.058 16.058 0 01-.264-5.6A11.696 11.696 0 0046 24.516z" fill="url(#a)"/><path d="M23.298 21.935A11.748 11.748 0 0023 24.516c0 .176.054.347.153.49l6.909 10.074c.1.141.239.25.4.31.87.33 1.777.55 2.7.653.584-6.51-3.595-12.484-9.864-14.108z" fill="url(#b)"/><path d="M20.019 23.226c-4.738-.003-8.991 2.929-10.713 7.385-1.722 4.456-.56 9.523 2.927 12.761a16.231 16.231 0 01-.307 5.454.866.866 0 00.212.839c.215.22.531.307.827.227a6.738 6.738 0 004.78-3.664c4.272.824 8.64-.86 11.282-4.35a11.698 11.698 0 001.2-12.135c-1.907-3.949-5.858-6.471-10.208-6.517z" fill="url(#c)"/><path d="M11.5 0C6.763-.003 2.51 2.93.787 7.385c-1.722 4.457-.56 9.523 2.927 12.761a16.231 16.231 0 01-.307 5.454.866.866 0 00.212.839.85.85 0 00.828.228 6.738 6.738 0 004.779-3.665c4.273.824 8.64-.86 11.283-4.35a11.698 11.698 0 001.2-12.135C19.802 2.568 15.85.046 11.5 0z" fill="url(#d)"/><path d="M23.852 30.108v-1.72h-5.963a.856.856 0 00-.852.86V41.29h1.704v-6.02h3.407v-1.72h-3.407v-3.441h5.11z" fill="url(#e)"/><path d="M35.778 25.806v1.29c0 .713-.572 1.291-1.278 1.291a1.284 1.284 0 01-1.278-1.29v-3.871h3.408v-1.72h-3.408v-2.581H31.52v8.172c0 1.663 1.334 3.01 2.981 3.01 1.647 0 2.981-1.347 2.981-3.01v-1.29h-1.703z" fill="url(#f)"/><path d="M16.918 7.501a4.228 4.228 0 00-5.418-.507 4.23 4.23 0 00-5.68.804 4.332 4.332 0 00.262 5.785l4.813 4.869a.848.848 0 001.21 0l4.813-4.87a4.331 4.331 0 000-6.08z" fill="url(#g)"/></g></svg>