<svg width="50" height="50" xmlns="http://www.w3.org/2000/svg"><g fill="#202330"><path d="M48.958 23.958c.584 0 1.042.459 1.042 1.042s-.458 1.042-1.042 1.042h-1.041v-2.084h1.041zm-22.916 0h21.875v2.084H26.042z"/><path d="M44.792 50H25c.583 0 1.042-.458 1.042-1.042v-1.041h18.75a3.12 3.12 0 003.125-3.125v-18.75h1.041c.584 0 1.042-.459 1.042-1.042v19.792A5.21 5.21 0 0144.792 50zM50 5.208V25c0-.583-.458-1.042-1.042-1.042h-1.041V5.208a3.12 3.12 0 00-3.125-3.125h-18.75V1.042C26.042.458 25.583 0 25 0h19.792A5.21 5.21 0 0150 5.208z"/><path d="M41.667 12.5c.583 0 1.041.458 1.041 1.042a1.03 1.03 0 01-1.041 1.041h-8.334a1.032 1.032 0 01-1.041-1.041c0-.584.458-1.042 1.041-1.042h8.334zm0 20.833c.583 0 1.041.459 1.041 1.042s-.458 1.042-1.041 1.042h-8.334a1.032 1.032 0 01-1.041-1.042c0-.583.458-1.042 1.041-1.042h8.334zm0 6.25c.583 0 1.041.459 1.041 1.042s-.458 1.042-1.041 1.042h-8.334a1.032 1.032 0 01-1.041-1.042c0-.583.458-1.042 1.041-1.042h8.334zm-15.625 8.334v1.041c0 .584-.459 1.042-1.042 1.042a1.032 1.032 0 01-1.042-1.042v-1.041h2.084zm-2.084-21.875h2.084v21.875h-2.084zm0-2.084h2.084v2.084h-2.084zm0-21.875h2.084v21.875h-2.084zm2.084-1.041v1.041h-2.084V1.042C23.958.458 24.417 0 25 0s1.042.458 1.042 1.042zM2.083 23.958h21.875v2.084H2.083zM16.667 12.5c.583 0 1.041.458 1.041 1.042a1.03 1.03 0 01-1.041 1.041h-3.125V12.5h3.125zm-.313 27.396a1.007 1.007 0 010 1.458.977.977 0 01-.729.313.977.977 0 01-.73-.313L12.5 38.958l1.458-1.458 2.396 2.396zm-1.458-6.25a1.007 1.007 0 011.458 0 1.007 1.007 0 010 1.458L13.958 37.5 12.5 36.042l2.396-2.396zm-3.86 3.852l1.458-1.458 1.458 1.458-1.458 1.458zm2.506-22.915v3.125c0 .584-.459 1.042-1.042 1.042a1.032 1.032 0 01-1.042-1.042v-3.125h2.084z"/><path d="M11.458 12.5h2.084v2.083h-2.084zm2.084-3.125V12.5h-2.084V9.375c0-.583.459-1.042 1.042-1.042s1.042.459 1.042 1.042zM12.5 36.042L11.042 37.5l-2.396-2.396a1.007 1.007 0 010-1.458 1.007 1.007 0 011.458 0l2.396 2.396zM11.458 12.5v2.083H8.333a1.032 1.032 0 01-1.041-1.041c0-.584.458-1.042 1.041-1.042h3.125zm-1.354 28.854a.977.977 0 01-.729.313.977.977 0 01-.73-.313 1.007 1.007 0 010-1.458l2.397-2.396 1.458 1.458-2.396 2.396zM2.083 23.958v2.084H1.042A1.032 1.032 0 010 25c0-.583.458-1.042 1.042-1.042h1.041z"/><path d="M0 5.208A5.21 5.21 0 015.208 0H25c-.583 0-1.042.458-1.042 1.042v1.041H5.208a3.12 3.12 0 00-3.125 3.125v18.75H1.042C.458 23.958 0 24.417 0 25V5.208zm2.083 39.584a3.12 3.12 0 003.125 3.125h18.75v1.041c0 .584.459 1.042 1.042 1.042H5.208A5.21 5.21 0 010 44.792V25c0 .583.458 1.042 1.042 1.042h1.041v18.75z"/></g></svg>