<svg width="44" height="50" xmlns="http://www.w3.org/2000/svg"><defs><linearGradient x1="50%" y1="100%" x2="50%" y2="0%" id="a"><stop stop-color="#C3FFE8" offset="0%"/><stop stop-color="#F0FFF4" offset="99.73%"/></linearGradient><linearGradient x1="50%" y1="100%" x2="50%" y2="0%" id="b"><stop stop-color="#00B59C" offset="0%"/><stop stop-color="#9CFFAC" offset="100%"/></linearGradient></defs><g fill="none"><path d="M22.004 45.268c-.364 0-.72-.067-1.06-.198-2.13-.825-6.228-2.677-9.763-5.808-4.5-3.987-6.781-8.753-6.781-14.164V11.61c0-1.04.56-2.011 1.461-2.534A8.896 8.896 0 009.09 5.854a2.943 2.943 0 012.537-1.46h20.748c1.042 0 2.014.56 2.537 1.46a8.896 8.896 0 003.228 3.223 2.938 2.938 0 011.461 2.534v13.487c0 5.424-2.274 10.191-6.76 14.17-3.535 3.135-7.645 4.982-9.781 5.804-.338.13-.693.196-1.055.196z" fill="url(#a)"/><path d="M42.533 5.86a4.402 4.402 0 01-4.4-4.395c0-.81-.656-1.465-1.466-1.465H7.333c-.81 0-1.466.656-1.466 1.465a4.402 4.402 0 01-4.4 4.394A1.467 1.467 0 000 7.324v17.774c0 4.292 1.157 8.284 3.438 11.864 1.804 2.832 4.309 5.402 7.443 7.638C15.598 47.965 21.197 50 22 50c.762 0 6.334-1.986 11.12-5.4 3.134-2.236 5.638-4.806 7.442-7.638C42.843 33.382 44 29.39 44 25.098V7.324c0-.809-.657-1.465-1.467-1.465zm-4.4 19.238c0 4.987-2.108 9.386-6.267 13.074-3.362 2.982-7.291 4.747-9.334 5.533-.34.131-.718.13-1.058-.001-2.037-.79-5.956-2.558-9.32-5.538-4.172-3.697-6.287-8.094-6.287-13.068V11.61c0-.522.278-1.005.73-1.267a10.365 10.365 0 003.76-3.755c.263-.452.746-.73 1.269-.73h20.748c.523 0 1.006.278 1.269.73a10.364 10.364 0 003.76 3.755c.452.263.73.745.73 1.267v13.487zM22 13.378c-5.661 0-10.267 4.6-10.267 10.255 0 5.654 4.606 10.254 10.267 10.254s10.267-4.6 10.267-10.254S27.66 13.379 22 13.379zm4.264 9.093l-4.4 4.395a1.468 1.468 0 01-2.074 0l-2.2-2.197a1.464 1.464 0 010-2.072 1.468 1.468 0 012.074 0l1.163 1.161L24.19 20.4a1.468 1.468 0 012.074 0c.572.572.572 1.5 0 2.071z" fill="url(#b)"/></g></svg>