<svg width="24" height="15" xmlns="http://www.w3.org/2000/svg"><path d="M23.75 1.335a.513.513 0 00-.502-.009L17.74 4.303V2.517C17.739 1.127 16.602.002 15.199 0H2.542C1.14.002.002 1.127 0 2.517v9.937c.002 1.39 1.139 2.515 2.542 2.517H15.2c1.403-.002 2.54-1.128 2.542-2.517v-1.753l5.507 2.976a.513.513 0 00.503-.009.503.503 0 00.249-.433V1.768a.502.502 0 00-.25-.433zm-7.026 11.12a1.52 1.52 0 01-1.526 1.51H2.542a1.52 1.52 0 01-1.525-1.51V2.516a1.52 1.52 0 011.525-1.51H15.2a1.52 1.52 0 011.525 1.51v9.937zm6.26-.068L17.74 9.554V5.45l5.242-2.834v9.771z" fill="#FFF"/></svg>