<svg data-name="Layer 1" xmlns="http://www.w3.org/2000/svg" viewBox="0 0 30 30"><path d="M1.8 25.25c.23-.45.66-.36 1.08-.37v-1.56a.57.57 0 01.61-.64h22.89c.5 0 .7.2.71.7v1.5h.49a.56.56 0 01.61.61v2.06a.65.65 0 01-.41.62H1.8zm1.1 1.83h24.17V26H2.9zM26 23.81H4v1.06h22zM1.8 7.67a2.22 2.22 0 01.48-.4l12.31-5.36a.91.91 0 01.79 0q6.12 2.68 12.26 5.33c.27.12.55.21.56.58a.54.54 0 01-.49.56H2.53A.76.76 0 011.8 8zm3.3-.43h19.84l-.24-.12L15.24 3a.57.57 0 00-.51 0L6.1 6.8zm5.49 6.64v-2.37c0-.58.21-.75.8-.72a3.88 3.88 0 002.2-.38 5.75 5.75 0 00.93-.69c.34-.3.61-.33.92 0a3.77 3.77 0 003.12 1.08 1.15 1.15 0 01.59.1.63.63 0 01.22.45v4.75a4.41 4.41 0 01-3.59 4.31 4.32 4.32 0 01-5.11-3.65 27.62 27.62 0 01-.12-2.88zm1.11-2v4a4.13 4.13 0 00.11.86 3.26 3.26 0 006.45-.64c.06-1.4 0-2.8 0-4.2v-.08A4.3 4.3 0 0115 10.8a5.22 5.22 0 01-3.3 1.12zM4 15.53v-5.31c0-.56.18-.74.75-.74h2.9c.55 0 .74.19.74.74v10.62c0 .56-.18.75-.73.75h-3c-.48 0-.68-.2-.68-.68zm3.28 5v-9.92H5.11v9.87zM26 15.56v5.36c0 .47-.19.66-.67.67h-3c-.48 0-.68-.2-.68-.67V10.14a.58.58 0 01.66-.66h3.07c.46 0 .66.21.66.66zm-1.11 4.92v-9.87H22.7v9.87z"/></svg>