<svg data-name="Layer 1" xmlns="http://www.w3.org/2000/svg" viewBox="0 0 30 30"><path d="M8.94 12.31c-1.42-.28-1.52-.2-1.52 1.16v7.82c0 1.12-.42 1.75-1.32 2a2.25 2.25 0 01-2.68-.9 4.68 4.68 0 01-.5-1.93c-.06-2.75 0-5.5 0-8.25a9.56 9.56 0 00-.34-2.32C1.86 7.34 2.3 6.37 4.7 5.35a6.62 6.62 0 011.2-.43.58.58 0 01.52.26c0 .14-.14.36-.24.54s-.11 0-.16 0C4.55 6.41 4.57 6.4 4.86 8A10.51 10.51 0 015 10c0 .69-.33 1.16-1.23.85v9.65c0 1.26.5 1.84 1.55 1.93.82.07 1.22-.28 1.22-1.11v-8c0-1.72.3-2 2-2.05h.44V5A4.14 4.14 0 0113.12.67q4.12-.08 8.24 0a4.15 4.15 0 014.15 4.27v19.7h1.42c.42 0 .83.19.81.79v3c0 .75-.23 1-1 1H7.69c-.72 0-1-.19-1-1 .06-1 0-2 0-3 0-.58.19-.84.78-.81s.9 0 1.4 0zm.92 12.27h14.78V5.16A3.38 3.38 0 0021 1.52h-7.39a3.39 3.39 0 00-3.75 3.75v19.31zm-2.15 1v2.91h19.08v-2.96zM3.18 8.82a3.83 3.83 0 00.28 1 2.68 2.68 0 00.65.53c.15-.24.45-.48.44-.71-.06-1-.21-1.93-.33-3-1.82.82-.77 1.65-.07 2.47l-.23.06z"/><path d="M17.31 4.17h3.48A1.65 1.65 0 0122.64 6v3a1.67 1.67 0 01-1.71 1.81h-7.4A1.65 1.65 0 0111.85 9V5.94a1.63 1.63 0 011.8-1.79c1.22.01 2.44.02 3.66.02zm0 .87h-3.59c-.66 0-1 .3-1 1v2.89c0 .72.37 1 1 1h7c.67 0 1.06-.3 1-1v-2.8c0-.77-.35-1.07-1.08-1zm4.19 9.06c.33.44.69.71.66.91s-.4.51-.61.75c-.23-.23-.58-.44-.64-.71s.29-.49.59-.95zm1 6.32c-.48.29-.79.62-1 .58a1 1 0 01-.57-.71c0-.18.41-.57.63-.56s.49.34.94.69zm.04-2.72c-.51.33-.78.64-1 .63a.82.82 0 01-.59-.59.85.85 0 01.56-.64c.22-.01.49.29 1.03.6z"/></svg>