<svg id="Layer_1" data-name="Layer 1" xmlns="http://www.w3.org/2000/svg" viewBox="0 0 30 30"><path d="M1.8,25.25c.23-.45.66-.36,1.08-.37v-.32c0-.42,0-.83,0-1.24a.57.57,0,0,1,.61-.64H26.38c.5,0,.7.2.71.7v1.5h.49a.56.56,0,0,1,.61.61c0,.69,0,1.37,0,2.06a.65.65,0,0,1-.41.62H1.8Zm1.1,1.83H27.07V26H2.9ZM26,23.81H4v1.06H26Z"/><path d="M1.8,7.67a2.22,2.22,0,0,1,.48-.4L14.59,1.91a.91.91,0,0,1,.79,0Q21.5,4.59,27.64,7.24c.27.12.55.21.56.58a.54.54,0,0,1-.49.56H2.53A.76.76,0,0,1,1.8,8Zm3.3-.43,0,0H24.94l-.24-.12L15.24,3a.57.57,0,0,0-.51,0L6.1,6.8Z"/><path d="M10.59,13.88V11.51c0-.58.21-.75.8-.72a3.88,3.88,0,0,0,2.2-.38,5.75,5.75,0,0,0,.93-.69c.34-.3.61-.33.92,0a3.77,3.77,0,0,0,3.12,1.08,1.15,1.15,0,0,1,.59.1.63.63,0,0,1,.22.45c0,1.59,0,3.17,0,4.75a4.41,4.41,0,0,1-3.59,4.31,4.32,4.32,0,0,1-5.11-3.65,27.62,27.62,0,0,1-.12-2.88Zm1.11-2c0,1.35,0,2.69,0,4a4.13,4.13,0,0,0,.11.86,3.26,3.26,0,0,0,6.45-.64c.06-1.4,0-2.8,0-4.2,0,0,0,0,0-.08A4.3,4.3,0,0,1,15,10.8,5.22,5.22,0,0,1,11.7,11.92Z"/><path d="M4,15.53V10.22c0-.56.18-.74.75-.74H7.65c.55,0,.74.19.74.74V20.84c0,.56-.18.75-.73.75h-3c-.48,0-.68-.2-.68-.68Zm3.28,5V10.61H5.11v9.87Z"/><path d="M26,15.56v5.36c0,.47-.19.66-.67.67h-3c-.48,0-.68-.2-.68-.67V10.14a.58.58,0,0,1,.66-.66h3.07c.46,0,.66.21.66.66Zm-1.11,4.92V10.61H22.7v9.87Z"/></svg>