<svg id="Layer_1" data-name="Layer 1" xmlns="http://www.w3.org/2000/svg" viewBox="0 0 30 30"><path d="M8.94,12.31c-1.42-.28-1.52-.2-1.52,1.16v7.82c0,1.12-.42,1.75-1.32,2a2.25,2.25,0,0,1-2.68-.9,4.68,4.68,0,0,1-.5-1.93c-.06-2.75,0-5.5,0-8.25a9.56,9.56,0,0,0-.34-2.32C1.86,7.34,2.3,6.37,4.7,5.35a6.62,6.62,0,0,1,1.2-.43.58.58,0,0,1,.52.26c0,.14-.14.36-.24.54s-.11,0-.16,0C4.55,6.41,4.57,6.4,4.86,8a10.51,10.51,0,0,1,.14,2c0,.69-.33,1.16-1.23.85v3.53c0,2,0,4.08,0,6.12,0,1.26.5,1.84,1.55,1.93.82.07,1.22-.28,1.22-1.11q0-4,0-8c0-1.72.3-2,2-2.05l.44,0V5A4.14,4.14,0,0,1,13.12.67q4.12-.08,8.24,0a4.15,4.15,0,0,1,4.15,4.27v19.7c.53,0,1,0,1.42,0s.83.19.81.79c0,1,0,2,0,3,0,.75-.23,1-1,1-3.26,0-6.52,0-9.78,0-3.09,0-6.18,0-9.27,0-.72,0-1-.19-1-1,.06-1,0-2,0-3,0-.58.19-.84.78-.81s.9,0,1.4,0Zm.92,12.27H24.64v-.8q0-9.32,0-18.62A3.38,3.38,0,0,0,21,1.52c-2.46,0-4.93,0-7.39,0A3.39,3.39,0,0,0,9.86,5.27V24.58Zm-2.15,1v2.91H26.79V25.53ZM3.18,8.82a3.83,3.83,0,0,0,.28,1,2.68,2.68,0,0,0,.65.53c.15-.24.45-.48.44-.71-.06-1-.21-1.93-.33-3-1.82.82-.77,1.65-.07,2.47l-.23.06Z"/><path d="M17.31,4.17c1.16,0,2.32,0,3.48,0A1.65,1.65,0,0,1,22.64,6c0,1,0,2,0,3a1.67,1.67,0,0,1-1.71,1.81c-2.47,0-4.93,0-7.4,0A1.65,1.65,0,0,1,11.85,9c0-1,0-2,0-3.06a1.63,1.63,0,0,1,1.8-1.79C14.87,4.16,16.09,4.17,17.31,4.17Zm0,.87H13.72c-.66,0-1,.3-1,1,0,1,0,1.93,0,2.89,0,.72.37,1,1,1h7c.67,0,1.06-.3,1-1,0-.93,0-1.86,0-2.8,0-.77-.35-1.07-1.08-1Z"/><path d="M21.5,14.1c.33.44.69.71.66.91s-.4.51-.61.75c-.23-.23-.58-.44-.64-.71S21.2,14.56,21.5,14.1Z"/><path d="M22.5,20.42c-.48.29-.79.62-1,.58a1,1,0,0,1-.57-.71c0-.18.41-.57.63-.56S22.05,20.07,22.5,20.42Z"/><path d="M22.54,17.7c-.51.33-.78.64-1,.63a.82.82,0,0,1-.59-.59.85.85,0,0,1,.56-.64C21.73,17.09,22,17.39,22.54,17.7Z"/></svg>