<svg data-name="Layer 1" xmlns="http://www.w3.org/2000/svg" viewBox="0 0 30 30"><path d="M15.14 25.84a12.54 12.54 0 01-5.8-23.67 12.29 12.29 0 0114.29 2.16 12.57 12.57 0 01-5.41 21.08 12.4 12.4 0 01-3.08.43zm-.75-23.19A9.93 9.93 0 0010 3.93a10.71 10.71 0 00-3.77 15.32 10.48 10.48 0 0012.56 4A10.68 10.68 0 0025.3 11c-1.08-4.89-5.37-8.35-10.91-8.35zm1.68 23.51v3.05h-2.14v-3.05z"/><path d="M25.23 13.06a10.41 10.41 0 01-7.91 10.32 10.2 10.2 0 01-11.51-5.52 10.38 10.38 0 015.08-14 10.27 10.27 0 0114.34 9.21zM15 23.31a9.94 9.94 0 009.53-12.71A9.9 9.9 0 0011.8 3.85 10 10 0 0015 23.31z"/><path d="M20.24 13.33v4.7a.62.62 0 01-.69.7h-9.11a.62.62 0 01-.69-.73V8.67A1.14 1.14 0 0111 7.44h8a1.13 1.13 0 011.21 1.23c.04 1.55.03 3.11.03 4.66zM15 14h3.82c.33 0 .41-.09.41-.41V10.4c0-.29-.09-.38-.39-.38h-7.69c-.29 0-.39.09-.39.38v3.19c0 .32.09.41.42.41zm0-4.62h4a.29.29 0 00.26-.27 4.17 4.17 0 000-.5.28.28 0 00-.26-.28h-7.9a.31.31 0 00-.32.33V9c0 .32.09.41.41.41zm-3 8.35a.89.89 0 100-1.78.87.87 0 00-.89.87.89.89 0 00.89.91zm5.92 0a.89.89 0 00.88-.9.87.87 0 00-.8-.83.89.89 0 100 1.78zM17.15 7h-4.27v-.85c0-.28.19-.27.41-.27h3.49a.36.36 0 01.36.35c.01.25.01.5.01.77zm-6.1 12.18H13v1.34c0 .18-.05.23-.23.23h-1.49c-.13 0-.22 0-.22-.18-.01-.46-.01-.91-.01-1.39zm5.95 0h1.93v1.34c0 .18-.05.23-.23.23h-1.46c-.13 0-.23 0-.23-.2zm3.69-6.95v-2h.6a.24.24 0 01.14.17v1.64a.16.16 0 01-.17.16zM9.31 10.26v2h-.59a.16.16 0 01-.16-.17v-1.63a.15.15 0 01.16-.17z"/></svg>